<svg width="84" height="62" viewBox="0 0 84 62" fill="none" xmlns="http://www.w3.org/2000/svg">
<path d="M8.95256 32.1489V29.8072C10.1136 29.8072 10.8942 29.6777 11.2943 29.4188C12.0082 28.9638 12.3652 28.2342 12.3652 27.2301C12.3652 26.4534 12.1063 25.8219 11.5885 25.3355C11.0786 24.8412 10.4157 24.5941 9.59978 24.5941C8.83881 24.5941 8.25043 24.7785 7.83464 25.1472C7.43454 25.5238 7.13643 26.1592 6.9403 27.0535H4.21023C4.49265 25.3433 5.07318 24.092 5.95183 23.2997C6.83047 22.4995 8.05822 22.0994 9.63508 22.0994C11.2276 22.0994 12.526 22.5701 13.5301 23.5115C14.5343 24.4451 15.0364 25.6493 15.0364 27.1241C15.0364 28.7873 14.3774 30.0817 13.0594 31.0074C14.5657 31.8939 15.3188 33.3335 15.3188 35.3262C15.3188 36.9579 14.7697 38.2916 13.6714 39.3271C12.5731 40.3627 11.1649 40.8804 9.4468 40.8804C7.25803 40.8804 5.6341 40.0763 4.57502 38.4681C4.1357 37.7934 3.8572 36.8599 3.73952 35.6674H6.38723C6.52844 36.5461 6.8697 37.2207 7.41101 37.6914C7.96016 38.1543 8.67406 38.3857 9.55271 38.3857C10.4392 38.3857 11.1727 38.0915 11.7532 37.5032C12.3338 36.8991 12.624 36.1342 12.624 35.2085C12.624 33.9846 12.1886 33.1138 11.3178 32.5961C10.8079 32.298 10.0195 32.1489 8.95256 32.1489ZM18.6137 31.384C18.6137 28.4892 19.2884 26.1788 20.6378 24.4529C21.8459 22.8917 23.309 22.1112 25.0271 22.1112C26.7451 22.1112 28.2082 22.8917 29.4164 24.4529C30.7657 26.1788 31.4404 28.5284 31.4404 31.5017C31.4404 34.4671 30.7657 36.8128 29.4164 38.5387C28.2082 40.0999 26.7491 40.8804 25.0388 40.8804C23.3286 40.8804 21.8616 40.0999 20.6378 38.5387C19.2884 36.8128 18.6137 34.4279 18.6137 31.384ZM21.3085 31.3958C21.3085 33.412 21.6576 35.0869 22.3558 36.4205C23.054 37.7307 23.9445 38.3857 25.0271 38.3857C26.1018 38.3857 26.9923 37.7307 27.6983 36.4205C28.4044 35.1183 28.7574 33.4747 28.7574 31.4899C28.7574 29.5051 28.4044 27.8577 27.6983 26.5475C26.9923 25.2453 26.1018 24.5941 25.0271 24.5941C23.9601 24.5941 23.0737 25.2453 22.3676 26.5475C21.6615 27.842 21.3085 29.4581 21.3085 31.3958ZM33.7709 37.1854L36.1244 38.1033L32.7706 44.8226L30.982 44.0812L33.7709 37.1854ZM37.9251 31.384C37.9251 28.4892 38.5997 26.1788 39.9491 24.4529C41.1572 22.8917 42.6203 22.1112 44.3384 22.1112C46.0565 22.1112 47.5196 22.8917 48.7277 24.4529C50.0771 26.1788 50.7517 28.5284 50.7517 31.5017C50.7517 34.4671 50.0771 36.8128 48.7277 38.5387C47.5196 40.0999 46.0604 40.8804 44.3502 40.8804C42.6399 40.8804 41.1729 40.0999 39.9491 38.5387C38.5997 36.8128 37.9251 34.4279 37.9251 31.384ZM40.6198 31.3958C40.6198 33.412 40.969 35.0869 41.6672 36.4205C42.3654 37.7307 43.2558 38.3857 44.3384 38.3857C45.4132 38.3857 46.3036 37.7307 47.0096 36.4205C47.7157 35.1183 48.0687 33.4747 48.0687 31.4899C48.0687 29.5051 47.7157 27.8577 47.0096 26.5475C46.3036 25.2453 45.4132 24.5941 44.3384 24.5941C43.2715 24.5941 42.385 25.2453 41.6789 26.5475C40.9729 27.842 40.6198 29.4581 40.6198 31.3958ZM52.7993 31.384C52.7993 28.4892 53.474 26.1788 54.8233 24.4529C56.0314 22.8917 57.4946 22.1112 59.2126 22.1112C60.9307 22.1112 62.3938 22.8917 63.6019 24.4529C64.9513 26.1788 65.6259 28.5284 65.6259 31.5017C65.6259 34.4671 64.9513 36.8128 63.6019 38.5387C62.3938 40.0999 60.9346 40.8804 59.2244 40.8804C57.5142 40.8804 56.0471 40.0999 54.8233 38.5387C53.474 36.8128 52.7993 34.4279 52.7993 31.384ZM55.4941 31.3958C55.4941 33.412 55.8432 35.0869 56.5414 36.4205C57.2396 37.7307 58.13 38.3857 59.2126 38.3857C60.2874 38.3857 61.1778 37.7307 61.8839 36.4205C62.5899 35.1183 62.9429 33.4747 62.9429 31.4899C62.9429 29.5051 62.5899 27.8577 61.8839 26.5475C61.1778 25.2453 60.2874 24.5941 59.2126 24.5941C58.1457 24.5941 57.2592 25.2453 56.5531 26.5475C55.8471 27.842 55.4941 29.4581 55.4941 31.3958ZM67.6735 31.384C67.6735 28.4892 68.3482 26.1788 69.6975 24.4529C70.9057 22.8917 72.3688 22.1112 74.0868 22.1112C75.8049 22.1112 77.268 22.8917 78.4762 24.4529C79.8255 26.1788 80.5002 28.5284 80.5002 31.5017C80.5002 34.4671 79.8255 36.8128 78.4762 38.5387C77.268 40.0999 75.8088 40.8804 74.0986 40.8804C72.3884 40.8804 70.9214 40.0999 69.6975 38.5387C68.3482 36.8128 67.6735 34.4279 67.6735 31.384ZM70.3683 31.3958C70.3683 33.412 70.7174 35.0869 71.4156 36.4205C72.1138 37.7307 73.0042 38.3857 74.0868 38.3857C75.1616 38.3857 76.052 37.7307 76.7581 36.4205C77.4641 35.1183 77.8172 33.4747 77.8172 31.4899C77.8172 29.5051 77.4641 27.8577 76.7581 26.5475C76.052 25.2453 75.1616 24.5941 74.0868 24.5941C73.0199 24.5941 72.1334 25.2453 71.4274 26.5475C70.7213 27.842 70.3683 29.4581 70.3683 31.3958Z" fill="white"/>
<path d="M36.7174 6.59107V9.25875H37.8401V6.59107H36.7174ZM36.7174 12.3486V14.9012H37.8593V12.3486H36.7174ZM36.3911 9.29713C35.9977 9.70976 35.3355 10.2663 34.7982 10.6118L35.5754 11.0532C36.1128 10.7365 36.8229 10.2567 37.4275 9.77693L36.3911 9.29713ZM38.5886 9.78652C37.6386 10.5446 36.0648 11.4946 34.827 12.0704L35.5371 12.5789C36.7749 12.0416 38.3679 11.1683 39.577 10.3431L38.5886 9.78652ZM33.7714 10.6694C34.5007 11.0628 35.4315 11.6673 35.8729 12.08L36.7366 11.4178C36.2472 10.986 35.2972 10.4199 34.5775 10.0648L33.7714 10.6694ZM38.6078 11.485C39.3946 11.9552 40.3446 12.6845 40.7956 13.1835L41.6881 12.5981C41.1987 12.0896 40.2103 11.3986 39.4426 10.9572L38.6078 11.485ZM38.4446 13.4714C39.2027 13.8552 40.1911 14.4502 40.6613 14.8436L41.5633 14.1911C41.0259 13.7976 40.0088 13.2315 39.2891 12.886L38.4446 13.4714ZM33.1189 12.0032L33.1573 12.9148C35.0093 12.8956 37.8689 12.8284 40.527 12.7517L40.5845 11.9168C37.8881 11.9648 34.9613 12.0032 33.1189 12.0032ZM35.086 12.9628C34.5871 13.4042 33.7234 13.8264 32.927 14.0951C33.1764 14.2774 33.5795 14.6517 33.7714 14.8628C34.5679 14.5077 35.5179 13.9416 36.1224 13.3562L35.086 12.9628ZM34.8174 8.36632H39.8073V8.86531H34.8174V8.36632ZM34.8174 7.05167H39.8073V7.54107H34.8174V7.05167ZM33.7426 6.17844V9.73854H40.9396V6.17844H33.7426ZM46.3037 9.11481V10.2567H51.5047V9.11481H46.3037ZM48.3285 5.92894V14.9012H49.4992V5.92894H48.3285ZM42.8684 8.83652V9.70016H45.9679V8.83652H42.8684ZM42.9259 6.18804V7.06127H45.9871V6.18804H42.9259ZM42.8684 10.1416V11.0148H45.9679V10.1416H42.8684ZM42.3982 7.48349V8.39511H46.3517V7.48349H42.3982ZM43.3962 11.4754V12.387H44.9315V13.481H43.3962V14.3926H45.9391V11.4754H43.3962ZM42.8396 11.4754V14.7764H43.8376V11.4754H42.8396Z" fill="white"/>
<path d="M20.8073 48.2642L20.0396 48.5809C20.2987 48.9455 20.5962 49.5213 20.7977 49.9051L21.5654 49.5788C21.383 49.2238 21.0472 48.6192 20.8073 48.2642ZM21.9396 47.8324L21.1815 48.1395C21.4406 48.5041 21.7477 49.0607 21.9492 49.4637L22.7169 49.1374C22.5441 48.8016 22.1891 48.1874 21.9396 47.8324ZM17.2088 51.8819L16.3643 52.7551C17.4871 53.4652 19.3007 54.7991 20.1452 55.5859L21.0568 54.5016C20.1739 53.7915 18.3891 52.5632 17.2088 51.8819ZM21.7285 50.2506L20.7497 49.646C20.5386 49.7132 20.2123 49.7612 19.9149 49.7612H17.1896L16.7386 50.8455H19.9916C19.8093 51.594 19.2143 52.6879 18.5618 53.4556C17.7462 54.4152 16.5947 55.4228 14.5891 56.0465L15.7022 57.0061C17.5351 56.3152 18.7729 55.2405 19.675 54.1177C20.529 53.0526 21.1144 51.8243 21.4118 50.9415C21.4982 50.7016 21.6229 50.4329 21.7285 50.2506ZM18.5522 48.7728L17.1704 48.341C17.084 48.6672 16.8729 49.1086 16.729 49.3485C16.2492 50.1738 15.3568 51.498 13.6775 52.5344L14.7138 53.3309C16.0861 52.3809 17.3143 50.9127 17.9669 49.7516C18.082 49.5501 18.3219 49.1086 18.5522 48.7728ZM28.4169 48.3122H26.9391C26.9967 48.7248 27.0063 48.9167 27.0063 49.195C27.0063 49.4445 27.0063 50.1546 27.0063 50.5768H28.3497C28.3497 50.2122 28.3497 49.4445 28.3497 49.195C28.3497 48.9167 28.3593 48.7248 28.4169 48.3122ZM31.6411 50.3369L30.8159 49.8283C30.6431 49.8859 30.4128 49.9243 30.0194 49.9243H24.9623C24.5977 49.9243 24.3098 49.9147 23.9835 49.8859C24.0219 50.1066 24.0219 50.4905 24.0219 50.7016C24.0219 51.0662 24.0219 52.0546 24.0219 52.3713C24.0219 52.6304 24.0123 52.9374 23.9835 53.1773H25.3078C25.279 52.9854 25.2694 52.6783 25.2694 52.4672C25.2694 52.1698 25.2694 51.3925 25.2694 51.0566H30.029C29.9139 51.9107 29.6644 52.8223 29.1846 53.5324C28.6376 54.3001 27.7931 54.8662 27.0063 55.1637C26.6032 55.3268 26.0851 55.4708 25.6436 55.5475L26.6416 56.6991C28.3497 56.248 29.7987 55.2309 30.5568 53.8203C31.0366 52.947 31.2861 52.0162 31.4588 51.095C31.4972 50.9127 31.574 50.548 31.6411 50.3369ZM34.8366 48.8496L33.925 49.8187C34.6255 50.2985 35.8346 51.3445 36.3336 51.8819L37.3123 50.8839C36.7462 50.2985 35.4987 49.3006 34.8366 48.8496ZM33.6275 55.2405L34.4431 56.5071C35.7866 56.2768 37.0245 55.7491 38.0033 55.1637C39.5482 54.2329 40.8245 52.9086 41.5442 51.6036L40.8053 50.2602C40.1911 51.5556 38.9437 53.0142 37.3027 53.993C36.3719 54.54 35.1341 55.0294 33.6275 55.2405ZM43.329 49.3389C43.3386 49.6172 43.3386 50.0011 43.3386 50.2794C43.3386 50.8359 43.3386 54.3864 43.3386 54.9622C43.3386 55.4228 43.3194 56.2672 43.3194 56.3152H44.6341C44.6341 56.2672 44.6245 55.4612 44.6245 55.0006C44.6245 54.4344 44.6245 50.5864 44.6245 50.5864H49.2689C49.2689 50.5864 49.2689 54.444 49.2689 55.0006C49.2689 55.5283 49.2401 56.2768 49.2401 56.3152H50.574C50.5644 56.2768 50.5548 55.3556 50.5548 54.9814C50.5548 54.396 50.5548 50.8647 50.5548 50.2794C50.5548 49.9819 50.5548 49.6364 50.574 49.3485C50.2189 49.3581 49.8639 49.3581 49.624 49.3581C48.9331 49.3581 45.0371 49.3581 44.3366 49.3581C44.0775 49.3581 43.7129 49.3485 43.329 49.3389ZM49.7391 54.5687H43.9719V55.7874H49.7391V54.5687ZM52.5891 51.6996V53.2157C52.9538 53.1869 53.5967 53.1581 54.1341 53.1581C55.2664 53.1581 58.4235 53.1581 59.2967 53.1581C59.6997 53.1581 60.1891 53.2061 60.4194 53.2157V51.6996C60.1603 51.7187 59.7381 51.7667 59.2871 51.7667C58.4331 51.7667 55.2664 51.7667 54.1341 51.7667C53.6351 51.7667 52.9442 51.7283 52.5891 51.6996ZM67.8467 49.0031L67.0406 49.3485C67.3957 49.8379 67.6068 50.2218 67.8947 50.8263L68.7199 50.4617C68.5088 50.0203 68.1154 49.4061 67.8467 49.0031ZM69.1038 48.4849L68.3073 48.8591C68.6624 49.3294 68.8927 49.6844 69.1997 50.2985L70.0058 49.8955C69.7947 49.4637 69.3917 48.8687 69.1038 48.4849ZM64.0275 55.3652C64.0275 55.7491 63.9891 56.3248 63.9316 56.6991H65.4285C65.3901 56.3152 65.3422 55.6435 65.3422 55.3652C65.3422 54.6551 65.3422 50.9127 65.3422 49.8475C65.3422 49.4541 65.3901 49.0319 65.4285 48.696H63.922C63.9891 49.0319 64.0275 49.5021 64.0275 49.8475C64.0275 50.6632 64.0275 54.6359 64.0275 55.3652ZM65.0543 51.1718V52.5536C66.1002 52.899 67.722 53.5132 68.8063 54.0794L69.3533 52.7551C68.4033 52.2849 66.3401 51.5268 65.0543 51.1718Z" fill="white"/>
</svg>
