<svg width="96" height="96" viewBox="0 0 96 96" fill="none" xmlns="http://www.w3.org/2000/svg">
<g filter="url(#filter0_b_521_200)">
<circle cx="48" cy="48" r="48" fill="white" fill-opacity="0.1"/>
<circle cx="48" cy="48" r="47.5" stroke="white"/>
</g>
<path d="M14.9526 47.1489V44.8071C16.1137 44.8071 16.8943 44.6777 17.2944 44.4188C18.0083 43.9638 18.3652 43.2342 18.3652 42.23C18.3652 41.4534 18.1063 40.8219 17.5886 40.3355C17.0786 39.8412 16.4157 39.5941 15.5998 39.5941C14.8389 39.5941 14.2505 39.7785 13.8347 40.1472C13.4346 40.5237 13.1365 41.1592 12.9404 42.0535H10.2103C10.4927 40.3433 11.0732 39.092 11.9519 38.2997C12.8305 37.4995 14.0583 37.0994 15.6351 37.0994C17.2277 37.0994 18.526 37.5701 19.5302 38.5115C20.5344 39.445 21.0365 40.6493 21.0365 42.1241C21.0365 43.7873 20.3775 45.0817 19.0595 46.0074C20.5658 46.8939 21.3189 48.3335 21.3189 50.3261C21.3189 51.9579 20.7697 53.2916 19.6714 54.3271C18.5731 55.3627 17.1649 55.8804 15.4469 55.8804C13.2581 55.8804 11.6342 55.0763 10.5751 53.4681C10.1358 52.7934 9.85726 51.8598 9.73958 50.6674H12.3873C12.5285 51.546 12.8698 52.2207 13.4111 52.6914C13.9602 53.1543 14.6741 53.3857 15.5528 53.3857C16.4393 53.3857 17.1728 53.0915 17.7533 52.5031C18.3338 51.8991 18.6241 51.1342 18.6241 50.2085C18.6241 48.9846 18.1887 48.1138 17.3179 47.5961C16.808 47.2979 16.0195 47.1489 14.9526 47.1489ZM24.6138 46.384C24.6138 43.4892 25.2885 41.1788 26.6378 39.4529C27.846 37.8917 29.3091 37.1111 31.0271 37.1111C32.7452 37.1111 34.2083 37.8917 35.4164 39.4529C36.7658 41.1788 37.4405 43.5284 37.4405 46.5017C37.4405 49.4671 36.7658 51.8128 35.4164 53.5387C34.2083 55.0998 32.7491 55.8804 31.0389 55.8804C29.3287 55.8804 27.8617 55.0998 26.6378 53.5387C25.2885 51.8128 24.6138 49.4279 24.6138 46.384ZM27.3086 46.3958C27.3086 48.4119 27.6577 50.0869 28.3559 51.4205C29.0541 52.7306 29.9445 53.3857 31.0271 53.3857C32.1019 53.3857 32.9923 52.7306 33.6984 51.4205C34.4044 50.1182 34.7575 48.4747 34.7575 46.4899C34.7575 44.5051 34.4044 42.8576 33.6984 41.5475C32.9923 40.2452 32.1019 39.5941 31.0271 39.5941C29.9602 39.5941 29.0737 40.2452 28.3677 41.5475C27.6616 42.842 27.3086 44.458 27.3086 46.3958ZM39.7709 52.1854L42.1244 53.1033L38.7707 59.8226L36.982 59.0812L39.7709 52.1854ZM43.9251 46.384C43.9251 43.4892 44.5998 41.1788 45.9492 39.4529C47.1573 37.8917 48.6204 37.1111 50.3385 37.1111C52.0565 37.1111 53.5196 37.8917 54.7278 39.4529C56.0771 41.1788 56.7518 43.5284 56.7518 46.5017C56.7518 49.4671 56.0771 51.8128 54.7278 53.5387C53.5196 55.0998 52.0605 55.8804 50.3502 55.8804C48.64 55.8804 47.173 55.0998 45.9492 53.5387C44.5998 51.8128 43.9251 49.4279 43.9251 46.384ZM46.6199 46.3958C46.6199 48.4119 46.969 50.0869 47.6672 51.4205C48.3654 52.7306 49.2558 53.3857 50.3385 53.3857C51.4132 53.3857 52.3036 52.7306 53.0097 51.4205C53.7158 50.1182 54.0688 48.4747 54.0688 46.4899C54.0688 44.5051 53.7158 42.8576 53.0097 41.5475C52.3036 40.2452 51.4132 39.5941 50.3385 39.5941C49.2715 39.5941 48.385 40.2452 47.679 41.5475C46.9729 42.842 46.6199 44.458 46.6199 46.3958ZM58.7993 46.384C58.7993 43.4892 59.474 41.1788 60.8234 39.4529C62.0315 37.8917 63.4946 37.1111 65.2127 37.1111C66.9307 37.1111 68.3938 37.8917 69.602 39.4529C70.9513 41.1788 71.626 43.5284 71.626 46.5017C71.626 49.4671 70.9513 51.8128 69.602 53.5387C68.3938 55.0998 66.9347 55.8804 65.2244 55.8804C63.5142 55.8804 62.0472 55.0998 60.8234 53.5387C59.474 51.8128 58.7993 49.4279 58.7993 46.384ZM61.4941 46.3958C61.4941 48.4119 61.8432 50.0869 62.5414 51.4205C63.2396 52.7306 64.1301 53.3857 65.2127 53.3857C66.2875 53.3857 67.1779 52.7306 67.8839 51.4205C68.59 50.1182 68.943 48.4747 68.943 46.4899C68.943 44.5051 68.59 42.8576 67.8839 41.5475C67.1779 40.2452 66.2875 39.5941 65.2127 39.5941C64.1458 39.5941 63.2593 40.2452 62.5532 41.5475C61.8472 42.842 61.4941 44.458 61.4941 46.3958ZM73.6736 46.384C73.6736 43.4892 74.3482 41.1788 75.6976 39.4529C76.9057 37.8917 78.3688 37.1111 80.0869 37.1111C81.805 37.1111 83.2681 37.8917 84.4762 39.4529C85.8256 41.1788 86.5002 43.5284 86.5002 46.5017C86.5002 49.4671 85.8256 51.8128 84.4762 53.5387C83.2681 55.0998 81.8089 55.8804 80.0987 55.8804C78.3885 55.8804 76.9214 55.0998 75.6976 53.5387C74.3482 51.8128 73.6736 49.4279 73.6736 46.384ZM76.3684 46.3958C76.3684 48.4119 76.7175 50.0869 77.4157 51.4205C78.1139 52.7306 79.0043 53.3857 80.0869 53.3857C81.1617 53.3857 82.0521 52.7306 82.7581 51.4205C83.4642 50.1182 83.8172 48.4747 83.8172 46.4899C83.8172 44.5051 83.4642 42.8576 82.7581 41.5475C82.0521 40.2452 81.1617 39.5941 80.0869 39.5941C79.02 39.5941 78.1335 40.2452 77.4274 41.5475C76.7214 42.842 76.3684 44.458 76.3684 46.3958Z" fill="white"/>
<path d="M38.6852 29.0375H40.1054V23.1168H42.1205V21.9269H36.6892V23.1168H38.6852V29.0375ZM44.6058 29.1719C45.9492 29.1719 47.1871 28.1355 47.1871 26.3507C47.1871 24.5658 45.9492 23.5295 44.6058 23.5295C43.2624 23.5295 42.0245 24.5658 42.0245 26.3507C42.0245 28.1355 43.2624 29.1719 44.6058 29.1719ZM44.6058 28.0204C43.8765 28.0204 43.4639 27.3678 43.4639 26.3507C43.4639 25.3431 43.8765 24.681 44.6058 24.681C45.3351 24.681 45.7477 25.3431 45.7477 26.3507C45.7477 27.3678 45.3351 28.0204 44.6058 28.0204ZM50.0626 29.1719C50.5328 29.1719 50.907 29.0663 51.1949 28.9704L50.9646 27.9436C50.8207 28.0012 50.6096 28.0587 50.4368 28.0587C49.957 28.0587 49.7075 27.7709 49.7075 27.1567V24.7769H51.0318V23.6638H49.7075V22.2148H48.5368L48.3737 23.6638L47.5389 23.731V24.7769H48.2969V27.1567C48.2969 28.3562 48.7863 29.1719 50.0626 29.1719ZM53.2243 29.1719C53.8385 29.1719 54.3758 28.8648 54.846 28.4618H54.8844L54.9804 29.0375H56.1319V25.8997C56.1319 24.3451 55.4314 23.5295 54.0688 23.5295C53.2243 23.5295 52.4566 23.8461 51.8233 24.2396L52.3319 25.1704C52.8309 24.8825 53.3107 24.6618 53.8097 24.6618C54.4718 24.6618 54.7021 25.0648 54.7309 25.5926C52.5622 25.8229 51.6314 26.4274 51.6314 27.5789C51.6314 28.4906 52.2647 29.1719 53.2243 29.1719ZM53.6849 28.0683C53.2723 28.0683 52.9748 27.886 52.9748 27.4638C52.9748 26.984 53.4162 26.6194 54.7309 26.4562V27.5406C54.3854 27.8764 54.088 28.0683 53.6849 28.0683ZM58.8938 29.1719C59.2297 29.1719 59.46 29.1143 59.6231 29.0471L59.4504 28.0012C59.3544 28.0204 59.316 28.0204 59.2585 28.0204C59.1241 28.0204 58.9802 27.9148 58.9802 27.5885V21.38H57.5696V27.531C57.5696 28.529 57.915 29.1719 58.8938 29.1719Z" fill="white"/>
<path d="M24.7498 71.2768C25.3063 71.2768 25.8437 70.9697 26.2372 70.5859H26.2755L26.3811 71.1425H27.523V63.4849H26.122V65.3753L26.17 66.2197C25.7861 65.8647 25.4119 65.6344 24.8074 65.6344C23.6462 65.6344 22.5523 66.7091 22.5523 68.4556C22.5523 70.2212 23.4159 71.2768 24.7498 71.2768ZM25.1144 70.1157C24.4043 70.1157 24.0013 69.5591 24.0013 68.446C24.0013 67.3712 24.5099 66.7955 25.1144 66.7955C25.4503 66.7955 25.7957 66.901 26.122 67.1985V69.5591C25.8053 69.9622 25.4887 70.1157 25.1144 70.1157ZM31.2804 71.2768C32.6238 71.2768 33.8617 70.2404 33.8617 68.4556C33.8617 66.6707 32.6238 65.6344 31.2804 65.6344C29.9369 65.6344 28.699 66.6707 28.699 68.4556C28.699 70.2404 29.9369 71.2768 31.2804 71.2768ZM31.2804 70.1253C30.5511 70.1253 30.1384 69.4728 30.1384 68.4556C30.1384 67.448 30.5511 66.7859 31.2804 66.7859C32.0097 66.7859 32.4223 67.448 32.4223 68.4556C32.4223 69.4728 32.0097 70.1253 31.2804 70.1253ZM35.8592 71.1425H37.4713L38.0183 68.801C38.1335 68.302 38.2102 67.8031 38.3158 67.2369H38.3638C38.4693 67.8031 38.5557 68.2925 38.6708 68.801L39.237 71.1425H40.8971L42.2213 65.7687H40.9163L40.3309 68.4172C40.235 68.945 40.1582 69.4536 40.0622 69.9909H40.0143C39.8991 69.4536 39.8032 68.945 39.6784 68.4172L39.0067 65.7687H37.7592L37.1067 68.4172C36.9723 68.9354 36.8764 69.4536 36.7708 69.9909H36.7324C36.6365 69.4536 36.5693 68.945 36.4638 68.4172L35.8784 65.7687H34.4678L35.8592 71.1425ZM43.2508 71.1425H44.6614V67.448C45.0548 67.0546 45.3331 66.8435 45.7745 66.8435C46.3023 66.8435 46.5326 67.1313 46.5326 67.9662V71.1425H47.9432V67.7935C47.9432 66.4404 47.4442 65.6344 46.2831 65.6344C45.5538 65.6344 45.0069 66.0182 44.5367 66.4788H44.5079L44.4023 65.7687H43.2508V71.1425ZM50.7225 71.2768C51.0583 71.2768 51.2886 71.2192 51.4518 71.1521L51.279 70.1061C51.1831 70.1253 51.1447 70.1253 51.0871 70.1253C50.9528 70.1253 50.8088 70.0197 50.8088 69.6935V63.4849H49.3982V69.6359C49.3982 70.6339 49.7437 71.2768 50.7225 71.2768ZM54.6705 71.2768C56.014 71.2768 57.2518 70.2404 57.2518 68.4556C57.2518 66.6707 56.014 65.6344 54.6705 65.6344C53.3271 65.6344 52.0892 66.6707 52.0892 68.4556C52.0892 70.2404 53.3271 71.2768 54.6705 71.2768ZM54.6705 70.1253C53.9412 70.1253 53.5286 69.4728 53.5286 68.4556C53.5286 67.448 53.9412 66.7859 54.6705 66.7859C55.3998 66.7859 55.8124 67.448 55.8124 68.4556C55.8124 69.4728 55.3998 70.1253 54.6705 70.1253ZM59.625 71.2768C60.2391 71.2768 60.7765 70.9697 61.2467 70.5667H61.2851L61.381 71.1425H62.5326V68.0046C62.5326 66.45 61.832 65.6344 60.4694 65.6344C59.625 65.6344 58.8573 65.951 58.224 66.3445L58.7325 67.2753C59.2315 66.9874 59.7113 66.7667 60.2103 66.7667C60.8724 66.7667 61.1028 67.1697 61.1315 67.6975C58.9629 67.9278 58.032 68.5324 58.032 69.6839C58.032 70.5955 58.6654 71.2768 59.625 71.2768ZM60.0856 70.1733C59.673 70.1733 59.3755 69.9909 59.3755 69.5687C59.3755 69.0889 59.8169 68.7243 61.1315 68.5611V69.6455C60.7861 69.9813 60.4886 70.1733 60.0856 70.1733ZM65.8606 71.2768C66.4172 71.2768 66.9546 70.9697 67.348 70.5859H67.3864L67.4919 71.1425H68.6339V63.4849H67.2328V65.3753L67.2808 66.2197C66.897 65.8647 66.5227 65.6344 65.9182 65.6344C64.7571 65.6344 63.6631 66.7091 63.6631 68.4556C63.6631 70.2212 64.5268 71.2768 65.8606 71.2768ZM66.2253 70.1157C65.5152 70.1157 65.1121 69.5591 65.1121 68.446C65.1121 67.3712 65.6207 66.7955 66.2253 66.7955C66.5611 66.7955 66.9066 66.901 67.2328 67.1985V69.5591C66.9162 69.9622 66.5995 70.1157 66.2253 70.1157ZM71.6811 71.2768C73.0821 71.2768 73.821 70.5187 73.821 69.5783C73.821 68.5803 73.0341 68.2253 72.324 67.9566C71.7579 67.7455 71.2589 67.6015 71.2589 67.2081C71.2589 66.901 71.4892 66.6899 71.9786 66.6899C72.372 66.6899 72.7463 66.8723 73.1301 67.1505L73.7634 66.2965C73.322 65.9606 72.7175 65.6344 71.9402 65.6344C70.7119 65.6344 69.9346 66.3157 69.9346 67.2753C69.9346 68.1773 70.6927 68.5899 71.374 68.849C71.9402 69.0697 72.4968 69.2521 72.4968 69.6551C72.4968 69.9909 72.2569 70.2212 71.7195 70.2212C71.2205 70.2212 70.7599 70.0101 70.2801 69.6359L69.6372 70.5187C70.1745 70.9601 70.9614 71.2768 71.6811 71.2768Z" fill="white"/>
<defs>
<filter id="filter0_b_521_200" x="-8" y="-8" width="112" height="112" filterUnits="userSpaceOnUse" color-interpolation-filters="sRGB">
<feFlood flood-opacity="0" result="BackgroundImageFix"/>
<feGaussianBlur in="BackgroundImageFix" stdDeviation="4"/>
<feComposite in2="SourceAlpha" operator="in" result="effect1_backgroundBlur_521_200"/>
<feBlend mode="normal" in="SourceGraphic" in2="effect1_backgroundBlur_521_200" result="shape"/>
</filter>
</defs>
</svg>
