<svg width="254" height="60" viewBox="0 0 254 60" fill="none" xmlns="http://www.w3.org/2000/svg">
<path d="M19.7521 18.335C17.6582 16.0623 15.4621 13.8917 12.985 12.0276C14.5938 9.52502 15.079 8.35035 15.9472 6.30745C16.2537 5.5669 16.8155 5.13279 17.3262 4.77528L15.3599 2.6047C14.9003 2.91113 14.5172 3.16649 14.032 3.16649H3.0259V6.1287H12.7552C12.1679 7.58427 11.172 10.1634 8.41405 13.1001C5.17095 16.5475 1.92784 17.9009 0.267987 18.6159L2.51518 20.9397C7.31599 18.5904 9.20567 16.6496 11.2486 14.3769C13.3425 16.0623 15.1556 17.9009 17.4794 20.761L19.7521 18.335Z" fill="white"/>
<path d="M46.6418 3.47293C46.6418 2.09397 45.5437 1.02145 44.2159 1.02145C42.888 1.02145 41.8155 2.09397 41.8155 3.47293C41.8155 4.82635 42.8624 5.92441 44.2159 5.92441C45.5437 5.92441 46.6418 4.85189 46.6418 3.47293ZM45.5948 3.47293C45.5948 4.26455 44.9819 4.87742 44.2159 4.87742C43.4242 4.87742 42.8369 4.21348 42.8369 3.47293C42.8369 2.70684 43.4242 2.06844 44.2159 2.06844C44.9819 2.06844 45.5948 2.70684 45.5948 3.47293ZM43.8839 17.5945C41.0494 18.0286 38.2149 18.335 35.3548 18.335C31.0902 18.335 31.0136 17.5434 31.0136 16.0623V12.1297C33.9248 11.4913 37.3977 10.5975 42.7603 8.35035C43.1178 8.35035 43.3221 8.42696 43.4498 8.42696C43.5519 8.42696 43.6796 8.37589 43.6796 8.22267C43.6796 8.04392 43.3732 7.76302 43.2966 7.68641L41.1771 5.59244C37.6275 7.73748 34.2057 8.70786 31.0136 9.29519V3.11542C31.0136 3.01328 31.1158 2.93667 31.3711 2.73238C31.5499 2.55362 31.601 2.50255 31.601 2.45148C31.601 2.29826 31.3967 2.09397 30.8349 2.01736L28.0004 1.60878V17.2114C28.0004 19.9183 28.8175 21.2206 36.3507 21.2206C38.6745 21.2206 41.0494 21.1185 43.6796 20.9142L43.8839 17.5945Z" fill="white"/>
<path d="M70.1352 13.3044V10.0613H51.9789V13.3044H70.1352Z" fill="white"/>
<path d="M98.9145 1.73646C98.5059 1.35342 98.0207 0.944841 96.3353 0L95.3905 1.37896C97.0504 2.29826 97.5355 2.70684 97.9697 3.11542L98.9145 1.73646ZM98.1995 4.9285C97.3057 4.13687 96.6418 3.65168 95.5182 3.01328L94.5478 4.44331C95.2117 4.85189 96.08 5.36261 97.2291 6.35853L98.1995 4.9285ZM92.9901 4.80082V2.01736H80.5029V4.80082H92.9901ZM96.2332 11.1338V8.47803H77.0555V11.1338H85.5846C85.4824 16.5986 83.2863 18.6925 78.7919 20.2758L81.1924 22.4208C86.1208 20.1992 88.4446 17.1859 88.5723 11.1338H96.2332Z" fill="white"/>
<path d="M115.458 7.48212C115.458 7.37998 115.382 7.30337 115.28 7.22676L113.237 5.51583C112.394 6.58835 110.99 8.37589 107.568 10.8274C104.605 12.9724 102.818 13.6874 101.541 14.1982L103.201 16.2411C105.04 15.4239 106.444 14.5812 108.385 13.2533V22.3698H111.015V11.287C113.032 9.62716 113.875 8.65679 114.488 7.94177C114.692 7.91624 115.458 7.83963 115.458 7.48212Z" fill="white"/>
<path d="M141.472 18.3861C139.864 17.3646 138.766 16.7262 137.08 16.0623C136.799 14.1726 136.748 13.049 136.748 12.5128C136.748 11.7722 136.901 11.1338 137.719 10.4699L135.063 9.03983C134.552 9.6527 133.965 10.4188 133.965 11.6445C133.965 12.1808 134.271 14.7855 134.322 15.3728C133.812 15.2962 133.173 15.2196 132.331 15.2196C128.807 15.2196 127.811 17.4668 127.811 18.8458C127.811 19.9183 128.347 20.6588 128.755 21.0163C129.828 21.9612 131.284 22.2165 132.918 22.2165C136.263 22.2165 137.029 21.144 137.259 19.1011C138.255 19.6374 138.919 20.0715 139.787 20.7865L141.472 18.3861ZM134.45 17.9264C134.45 18.8458 134.476 19.9183 132.407 19.9183C131.003 19.9183 130.288 19.3309 130.288 18.7691C130.288 18.2584 130.9 17.5434 132.228 17.5434C133.097 17.5434 133.99 17.7988 134.45 17.9264ZM142.187 7.71195C140.298 6.28192 138.383 5.69458 136.493 5.36261L135.344 7.55873C137.872 8.19714 139.251 8.86108 140.936 9.88253L142.187 7.71195ZM134.578 6.38406V3.524C133.914 3.75383 133.148 4.00919 131.641 4.39224C131.743 4.06026 132.228 2.42594 132.254 2.40041C132.407 2.24719 132.841 2.09397 132.841 1.83861C132.841 1.55771 132.356 1.43003 132.228 1.40449L129.445 0.791624C129.266 2.34934 128.96 3.47293 128.526 5.00511C126.942 5.2094 125.87 5.31154 124.184 5.33708L124.567 7.99285C125.768 7.91624 126.483 7.83963 127.657 7.68641C126.61 10.572 125.334 13.8662 123.291 16.9816L126.023 18.1563C127.351 15.7303 128.679 13.1767 130.747 7.20122C132.918 6.81818 133.709 6.61389 134.578 6.38406Z" fill="white"/>
<path d="M168.975 14.1982L166.702 12.8703C166.549 13.9683 166.268 15.1175 165.094 15.1175H162.923C162.182 15.1175 161.901 14.8876 161.901 13.8151V10.5975H165.298V11.3892H168.337V1.94076H158.914V4.49438H165.298V8.1716H159.144V15.6282C159.144 16.9561 160.191 17.8243 161.467 17.8243H165.145C167.034 17.8243 167.954 17.4923 168.362 16.5986C168.388 16.5475 168.873 15.475 168.975 14.1982ZM170.073 18.7436C167.034 18.9224 161.927 19.2288 159.756 19.2288C157.254 19.2288 155.977 18.7181 155.032 18.3095V15.1175H158.25V12.4617H155.032V10.4443H158.505V7.78855H154.751V5.8478H158.097V3.31971H154.751V1.83861C154.751 1.73647 154.981 1.55771 155.185 1.40449C155.288 1.30235 155.339 1.25128 155.339 1.14913C155.339 0.944841 155.134 0.842696 154.675 0.81716L151.866 0.612872V3.31971H147.908V5.8478H151.866V7.78855H147.295V10.4443H152.07V11.9254C151.993 11.8744 151.815 11.8488 151.687 11.8233L148.904 11.5424C148.75 12.8703 148.597 14.6323 147.805 17.4157C147.218 19.4586 146.81 20.1736 146.299 21.1185L149.133 22.1144C149.567 21.2206 149.899 20.3269 150.589 17.7477C151.457 18.7181 152.887 20.4035 155.594 21.3483C157.535 22.0378 159.68 22.0122 160.676 22.0122H168.49L170.073 18.7436ZM152.07 15.9857C151.457 15.1941 151.381 15.0664 151.253 14.8621C151.483 13.5853 151.508 13.3555 151.559 12.7681C151.585 12.666 152.019 12.4362 152.07 12.3595V15.9857Z" fill="white"/>
<path d="M194.435 5.97548H190.298C190.323 5.38815 190.4 2.83452 190.425 2.3238C190.451 2.0429 190.502 2.01736 190.911 1.63432C190.987 1.55771 191.064 1.4811 191.064 1.32789C191.064 0.995914 190.655 0.970378 190.451 0.970378L187.693 0.842696C187.693 3.16649 187.693 3.19203 187.668 5.97548H185.752V8.50357H187.54C187.438 9.83146 187.182 12.1297 186.365 14.76C185.727 16.8539 185.063 17.9264 184.654 18.5649V17.8243C183.25 17.952 182.867 17.9775 180.492 18.1818V17.0071H184.603V15.0919H180.492V14.0449H184.476V7.30337H180.492V6.20531H185.523V4.26455H180.492V2.9622C181.054 2.8856 182.152 2.75792 182.177 2.75792C182.356 2.73238 183.122 2.57916 183.275 2.57916C183.429 2.57916 184.016 2.78345 184.118 2.78345C184.348 2.78345 184.424 2.68131 184.424 2.57916C184.424 2.45148 184.322 2.3238 184.246 2.19612L182.969 0.536261C180.007 1.35342 176.917 1.40449 173.852 1.30235L174.746 3.31971C176.508 3.31971 177.351 3.26864 177.887 3.21757V4.26455H172.882V6.20531H177.887V7.30337H173.929V14.0449H177.887V15.0919H173.75V17.0071H177.887V18.3606C176.993 18.4372 174.593 18.6159 173.01 18.667L173.367 20.9908C173.418 21.3483 173.546 21.476 173.75 21.476C173.98 21.476 174.057 21.3738 174.261 21.0929C174.414 20.8631 174.491 20.8886 175.053 20.812C176.432 20.6588 182.484 19.9693 183.709 19.8161C183.02 20.6077 182.765 20.8631 182.407 21.1951L185.012 22.4974C188.689 17.8754 189.736 13.5597 190.145 8.50357H191.753C191.677 13.049 191.115 17.4413 190.757 18.8713C190.553 19.6629 190.119 20.2247 188.97 20.2247C188.51 20.2247 188.051 20.1481 187.77 20.097L188.995 22.7528C191.804 22.7017 192.775 22.0633 193.388 18.8713C194.256 14.4535 194.384 8.14606 194.435 5.97548ZM182.126 9.88253H180.492V8.81001H182.126V9.88253ZM182.126 12.5383H180.492V11.4147H182.126V12.5383ZM177.887 9.88253H176.278V8.81001H177.887V9.88253ZM177.887 12.5383H176.278V11.4147H177.887V12.5383Z" fill="white"/>
<path d="M198.137 17.2114C200.129 18.8202 201.738 20.6588 203.066 22.8805L205.722 20.761C204.138 18.0797 202.198 16.4709 200.053 15.2196L198.137 17.2114Z" fill="white"/>
<path d="M15.5824 57.8797V39.2383H12.2627V50.0146L12.6202 54.177L11.2157 51.1126L3.8613 39.2383H0.184082V57.8797H3.50379V47.1034L3.14629 42.941L4.55078 46.0054L11.9052 57.8797H15.5824Z" fill="white"/>
<path d="M32.7885 51.0615C32.7885 47.0779 30.1838 43.8093 25.6128 43.8093C21.7058 43.8093 18.4116 46.5416 18.4116 51.1126C18.4116 54.4834 20.2246 58.2117 25.5362 58.2117C30.6434 58.2117 32.7885 54.5855 32.7885 51.0615ZM29.3666 51.0105C29.3666 52.7214 28.8814 55.5304 25.7149 55.5304C23.289 55.5304 21.859 53.5896 21.859 50.9849C21.859 47.9717 23.7231 46.4906 25.6128 46.4906C27.5025 46.4906 29.3666 47.8695 29.3666 51.0105Z" fill="white"/>
<path d="M41.4934 46.8481V44.1412H39.1185V40.2853H35.7477V44.1412H33.858V46.8481H35.7477V54.6366C35.7477 56.8072 36.667 57.8797 39.3483 57.8797H41.4167V55.3261H39.9612C39.3738 55.3261 39.1185 55.0452 39.1185 54.4323V46.8481H41.4934Z" fill="white"/>
<path d="M48.0817 42.558V39.2383H44.7109V42.558H48.0817ZM48.0817 57.8797V44.1412H44.7109V57.8797H48.0817Z" fill="white"/>
<path d="M65.8167 51.0615C65.8167 47.0779 63.212 43.8093 58.6411 43.8093C54.734 43.8093 51.4398 46.5416 51.4398 51.1126C51.4398 54.4834 53.2529 58.2117 58.5644 58.2117C63.6717 58.2117 65.8167 54.5855 65.8167 51.0615ZM62.3949 51.0105C62.3949 52.7214 61.9097 55.5304 58.7432 55.5304C56.3173 55.5304 54.8872 53.5896 54.8872 50.9849C54.8872 47.9717 56.7514 46.4906 58.6411 46.4906C60.5307 46.4906 62.3949 47.8695 62.3949 51.0105Z" fill="white"/>
<path d="M80.7196 57.8797V48.6611C80.7196 45.5457 79.0342 43.8093 76.1231 43.8093C73.4418 43.8093 72.4203 45.5202 71.8841 46.465L72.0118 45.2904V44.1412H68.641V57.8797H72.0118V49.8613C72.0118 47.3333 73.6461 46.6438 75.025 46.6438C76.7104 46.6438 77.3488 47.6652 77.3488 49.1974V57.8797H80.7196Z" fill="white"/>
<path d="M107.356 58.3904V55.5559H97.4227V47.7163H105.696V44.7541H97.4227V38.4977C97.4227 38.37 97.6525 38.2679 97.8057 38.1913C97.9334 38.1147 98.0866 38.0381 98.0866 37.8338C98.0866 37.6295 97.8568 37.5529 97.7036 37.5529L94.2562 37.272V55.5559H85.3696V58.3904H107.356Z" fill="white"/>
<path d="M130.288 42.609V39.6468C129.317 39.9788 127.223 40.6938 124.236 40.6938C122.857 40.6938 121.708 40.5151 120.967 40.4129V43.2219C122.321 43.3496 123.495 43.3496 123.699 43.3496C126.534 43.3496 129.113 42.8389 130.288 42.609ZM131.514 56.0156V52.8491C130.594 53.1044 128.602 53.6407 125.691 53.6407C123.112 53.6407 122.857 52.9512 122.831 50.5253L120.048 50.9083C120.124 55.224 121.095 56.4752 125.742 56.4752C128.449 56.4752 130.16 56.2199 131.514 56.0156ZM118.158 51.4701L116.651 50.653C116.09 51.6489 115.936 51.9042 115.63 52.4405C115.273 51.3424 115.273 49.3762 115.273 48.942C115.273 45.0861 116.371 40.464 116.754 40.2342C116.805 40.2086 117.137 40.081 117.188 40.0554C117.29 39.9788 117.315 39.8767 117.315 39.8256C117.315 39.6213 116.83 39.4426 116.651 39.3659L114.047 38.4211C113.689 39.9277 113.332 41.4855 112.974 44.2434C112.796 45.75 112.591 47.6397 112.591 49.274C112.591 51.2403 112.872 53.6152 113.638 55.99C113.945 56.9349 114.174 57.3435 114.583 58.0074L116.6 57.2158C116.856 55.5815 117.239 53.5641 118.158 51.4701Z" fill="white"/>
<path d="M158.48 40.8726V38.5999H151.432C151.534 38.3956 151.611 38.3445 152.172 38.0636C152.249 38.0381 152.428 37.9359 152.428 37.7827C152.428 37.5784 152.147 37.5018 151.994 37.4763L149.108 36.9655C148.648 38.1147 148.24 38.8552 147.448 39.8767V38.7786H141.345C141.549 38.3956 141.6 38.37 141.983 38.1913C142.188 38.0891 142.366 37.9615 142.366 37.8082C142.366 37.5784 141.907 37.5018 141.805 37.4763L138.74 36.9911C137.872 39.1361 136.876 40.5151 135.114 42.0728L137.847 43.0432H137.489V59.2587H140.324V50.0656H146.682V43.0432H138.383C138.689 42.6857 139.123 42.1494 139.966 40.9237H141.754C141.983 41.3833 142.162 41.894 142.264 42.3792L145.201 42.226C145.124 41.6387 145.048 41.2301 144.946 40.9237H146.452C146.197 41.1535 145.967 41.3833 145.61 41.6897L148.138 43.273L148.291 43.0942V49.989H154.598V55.5815C154.598 56.0156 154.19 56.2709 153.653 56.2709C153.449 56.2709 153.322 56.2709 152.275 56.1943V50.9594H142.596V58.4926H145.175V57.6244H152.275V56.7306L153.449 59.1821H154.266C155.594 59.1821 157.407 58.6969 157.407 56.8072V42.9921H148.393C149.031 42.2771 149.466 41.6642 150.027 40.8726H151.304C151.636 41.3578 151.84 41.9706 151.917 42.3537L154.981 42.2771C154.879 41.843 154.675 41.2812 154.496 40.8726H158.48ZM154.598 45.5457H150.921V44.703H154.598V45.5457ZM154.598 48.0993H150.921V47.2566H154.598V48.0993ZM144.026 45.6223H140.324V44.703H144.026V45.6223ZM144.026 48.2015H140.324V47.2311H144.026V48.2015ZM149.746 53.5386H145.175V52.6703H149.746V53.5386ZM149.746 55.9134H145.175V54.9431H149.746V55.9134Z" fill="white"/>
<path d="M183.965 55.275V52.6448H174.466V51.3424H181.692V42.3281H178.858C179.752 41.1279 180.211 40.3363 180.926 39.085C181.59 38.8808 181.667 38.8552 181.667 38.6509C181.667 38.4722 181.488 38.3445 181.105 38.2168L178.398 37.3741C177.377 39.5958 176.994 40.4129 175.742 42.3281H172.908L174.798 41.2556C174.108 39.9022 173.24 38.4977 171.937 36.8379L169.409 38.2934C170.635 39.6213 171.401 41.0258 171.989 42.3281H167.137L168.975 41.1279C168.26 40.1831 166.983 38.702 165.885 37.7572L163.536 39.2638C164.838 40.3363 165.656 41.179 166.498 42.3281H164.251V51.3424H171.452V52.6448H161.953V55.275H171.452V59.2076H174.466V55.275H183.965ZM178.781 45.6734H174.466V44.5753H178.781V45.6734ZM178.781 49.0697H174.466V47.9461H178.781V49.0697ZM171.452 45.6734H167.06V44.5753H171.452V45.6734ZM171.452 49.0697H167.06V47.9461H171.452V49.0697Z" fill="white"/>
<path d="M206.897 42.609V39.6468C205.926 39.9788 203.832 40.6938 200.844 40.6938C199.466 40.6938 198.316 40.5151 197.576 40.4129V43.2219C198.929 43.3496 200.104 43.3496 200.308 43.3496C203.143 43.3496 205.722 42.8389 206.897 42.609ZM208.122 56.0156V52.8491C207.203 53.1044 205.211 53.6407 202.3 53.6407C199.721 53.6407 199.466 52.9512 199.44 50.5253L196.657 50.9083C196.733 55.224 197.704 56.4752 202.351 56.4752C205.058 56.4752 206.769 56.2199 208.122 56.0156ZM194.767 51.4701L193.26 50.653C192.698 51.6489 192.545 51.9042 192.239 52.4405C191.881 51.3424 191.881 49.3762 191.881 48.942C191.881 45.0861 192.979 40.464 193.362 40.2342C193.413 40.2086 193.745 40.081 193.796 40.0554C193.899 39.9788 193.924 39.8767 193.924 39.8256C193.924 39.6213 193.439 39.4426 193.26 39.3659L190.656 38.4211C190.298 39.9277 189.94 41.4855 189.583 44.2434C189.404 45.75 189.2 47.6397 189.2 49.274C189.2 51.2403 189.481 53.6152 190.247 55.99C190.553 56.9349 190.783 57.3435 191.192 58.0074L193.209 57.2158C193.464 55.5815 193.848 53.5641 194.767 51.4701Z" fill="white"/>
<path d="M229.919 41.1279C229.919 40.8981 229.511 40.6683 229.383 40.6172L226.549 39.3404C225.782 41.7664 225.042 43.5028 223.561 45.75C222.437 44.7286 221.211 43.6305 219.398 42.5069L217.662 44.8818C220.139 46.465 221.16 47.512 221.773 48.1504C220.216 49.9124 218.351 52.0064 213.346 54.6111L215.823 56.9093C219.909 54.56 221.748 52.7214 223.893 50.321C225.118 51.6233 225.885 52.6703 226.804 54.0493L229.128 51.8021C227.851 50.1933 226.906 49.1463 225.757 47.9206C227.544 45.2904 228.157 43.8348 229.281 41.4088C229.536 41.3578 229.919 41.2812 229.919 41.1279Z" fill="white"/>
<path d="M254 48.7377V46.0564H245.241V41.4344H252.315V38.7531H237.606V41.4344H242.304V46.0564H235.18V48.7377H242.304V53.8961C242.304 57.5477 245.19 57.6754 247.616 57.6754C249.072 57.6754 252.289 57.6244 252.953 57.5988V54.56C251.932 54.6877 250.527 54.8409 248.561 54.8409C246.186 54.8409 245.241 54.4834 245.241 53.13V48.7377H254Z" fill="white"/>
</svg>
