<svg width="278" height="60" viewBox="0 0 278 60" fill="none" xmlns="http://www.w3.org/2000/svg">
<path d="M18.188 10.692C18.188 12.0787 18.0233 13.344 17.694 14.488C17.3647 15.632 16.862 16.6287 16.186 17.478C15.51 18.31 14.652 18.96 13.612 19.428L18.084 24.42H13.04L9.634 20.26C9.582 20.26 9.53 20.26 9.478 20.26C9.44333 20.26 9.4 20.26 9.348 20.26C7.84 20.26 6.52267 20.0347 5.396 19.584C4.28667 19.116 3.368 18.466 2.64 17.634C1.92933 16.7847 1.392 15.7707 1.028 14.592C0.681333 13.4133 0.508 12.1047 0.508 10.666C0.508 8.742 0.82 7.06933 1.444 5.648C2.08533 4.22667 3.056 3.126 4.356 2.346C5.67333 1.54867 7.346 1.15 9.374 1.15C11.3847 1.15 13.04 1.54867 14.34 2.346C15.64 3.126 16.602 4.23533 17.226 5.674C17.8673 7.09533 18.188 8.768 18.188 10.692ZM4.642 10.692C4.642 11.992 4.80667 13.11 5.136 14.046C5.46533 14.982 5.97667 15.7013 6.67 16.204C7.36333 16.7067 8.256 16.958 9.348 16.958C10.4747 16.958 11.376 16.7067 12.052 16.204C12.7453 15.7013 13.248 14.982 13.56 14.046C13.8893 13.11 14.054 11.992 14.054 10.692C14.054 8.73333 13.69 7.19933 12.962 6.09C12.234 4.98067 11.038 4.426 9.374 4.426C8.26467 4.426 7.36333 4.67733 6.67 5.18C5.97667 5.68267 5.46533 6.402 5.136 7.338C4.80667 8.274 4.642 9.392 4.642 10.692ZM34.7474 5.804V20H31.7834L31.2634 18.18H31.0554C30.7607 18.6653 30.3794 19.064 29.9114 19.376C29.4607 19.6707 28.958 19.8873 28.4034 20.026C27.8487 20.182 27.2767 20.26 26.6874 20.26C25.682 20.26 24.798 20.078 24.0354 19.714C23.2727 19.35 22.6834 18.7867 22.2674 18.024C21.8514 17.2613 21.6434 16.2733 21.6434 15.06V5.804H25.5174V14.098C25.5174 15.1033 25.6994 15.866 26.0634 16.386C26.4274 16.906 27.008 17.166 27.8054 17.166C28.6027 17.166 29.218 16.984 29.6514 16.62C30.102 16.256 30.414 15.7273 30.5874 15.034C30.778 14.3407 30.8734 13.4913 30.8734 12.486V5.804H34.7474ZM42.6833 5.804V20H38.8093V5.804H42.6833ZM40.7593 0.239999C41.3313 0.239999 41.8253 0.378666 42.2413 0.656C42.6573 0.915999 42.8653 1.41 42.8653 2.138C42.8653 2.84867 42.6573 3.34267 42.2413 3.62C41.8253 3.89733 41.3313 4.036 40.7593 4.036C40.1699 4.036 39.6673 3.89733 39.2513 3.62C38.8526 3.34267 38.6533 2.84867 38.6533 2.138C38.6533 1.41 38.8526 0.915999 39.2513 0.656C39.6673 0.378666 40.1699 0.239999 40.7593 0.239999ZM52.5031 20.26C51.0991 20.26 49.9031 20.0087 48.9151 19.506C47.9271 18.986 47.1731 18.1887 46.6531 17.114C46.1331 16.0393 45.8731 14.6613 45.8731 12.98C45.8731 11.2467 46.1678 9.834 46.7571 8.742C47.3465 7.65 48.1611 6.844 49.2011 6.324C50.2585 5.804 51.4718 5.544 52.8411 5.544C53.8118 5.544 54.6525 5.63933 55.3631 5.83C56.0911 6.02067 56.7238 6.246 57.2611 6.506L56.1171 9.496C55.5105 9.25333 54.9385 9.054 54.4011 8.898C53.8811 8.742 53.3611 8.664 52.8411 8.664C52.1651 8.664 51.6018 8.82867 51.1511 9.158C50.7005 9.47 50.3625 9.94667 50.1371 10.588C49.9291 11.212 49.8251 12.0007 49.8251 12.954C49.8251 13.89 49.9378 14.67 50.1631 15.294C50.4058 15.9007 50.7525 16.36 51.2031 16.672C51.6538 16.9667 52.1998 17.114 52.8411 17.114C53.6558 17.114 54.3751 17.01 54.9991 16.802C55.6231 16.5767 56.2298 16.2733 56.8191 15.892V19.194C56.2298 19.5753 55.6058 19.844 54.9471 20C54.3058 20.1733 53.4911 20.26 52.5031 20.26ZM63.9606 9.08C63.9606 9.61733 63.9346 10.1547 63.8826 10.692C63.8479 11.212 63.8046 11.7407 63.7526 12.278H63.8046C63.9779 12.0353 64.1513 11.7927 64.3246 11.55C64.5153 11.3073 64.7059 11.0647 64.8966 10.822C65.0873 10.5793 65.2866 10.3453 65.4946 10.12L69.4726 5.804H73.8406L68.1986 11.966L74.1786 20H69.7066L65.6246 14.254L63.9606 15.58V20H60.0866V0.239999H63.9606V9.08ZM88.7875 5.518C90.6942 5.518 92.1502 5.934 93.1555 6.766C94.1782 7.58067 94.6895 8.83733 94.6895 10.536V20H91.9855L91.2315 18.076H91.1275C90.7289 18.5787 90.3129 18.9947 89.8795 19.324C89.4635 19.6533 88.9782 19.8873 88.4235 20.026C87.8862 20.182 87.2189 20.26 86.4215 20.26C85.5895 20.26 84.8355 20.104 84.1595 19.792C83.5009 19.4627 82.9809 18.9687 82.5995 18.31C82.2182 17.634 82.0275 16.7847 82.0275 15.762C82.0275 14.254 82.5562 13.1447 83.6135 12.434C84.6709 11.706 86.2569 11.3073 88.3715 11.238L90.8415 11.16V10.536C90.8415 9.79067 90.6422 9.24467 90.2435 8.898C89.8622 8.55133 89.3249 8.378 88.6315 8.378C87.9382 8.378 87.2622 8.482 86.6035 8.69C85.9449 8.88067 85.2862 9.12333 84.6275 9.418L83.3535 6.792C84.1162 6.39333 84.9569 6.08133 85.8755 5.856C86.8115 5.63067 87.7822 5.518 88.7875 5.518ZM89.3335 13.474C88.0855 13.5087 87.2189 13.734 86.7335 14.15C86.2482 14.566 86.0055 15.112 86.0055 15.788C86.0055 16.3773 86.1789 16.802 86.5255 17.062C86.8722 17.3047 87.3229 17.426 87.8775 17.426C88.7095 17.426 89.4115 17.1833 89.9835 16.698C90.5555 16.1953 90.8415 15.4933 90.8415 14.592V13.422L89.3335 13.474ZM106.559 5.544C108.154 5.544 109.445 6.168 110.433 7.416C111.421 8.64667 111.915 10.4667 111.915 12.876C111.915 14.488 111.681 15.8487 111.213 16.958C110.745 18.05 110.104 18.8733 109.289 19.428C108.474 19.9827 107.53 20.26 106.455 20.26C105.779 20.26 105.19 20.1733 104.687 20C104.202 19.8267 103.786 19.6013 103.439 19.324C103.092 19.0467 102.789 18.752 102.529 18.44H102.321C102.39 18.7693 102.442 19.116 102.477 19.48C102.512 19.8267 102.529 20.1733 102.529 20.52V26.24H98.655V5.804H101.801L102.347 7.65H102.529C102.789 7.26867 103.101 6.922 103.465 6.61C103.829 6.28067 104.262 6.02067 104.765 5.83C105.285 5.63933 105.883 5.544 106.559 5.544ZM105.311 8.638C104.635 8.638 104.098 8.77667 103.699 9.054C103.3 9.33133 103.006 9.756 102.815 10.328C102.642 10.8827 102.546 11.5847 102.529 12.434V12.85C102.529 13.7687 102.616 14.5487 102.789 15.19C102.962 15.814 103.257 16.2907 103.673 16.62C104.089 16.9493 104.652 17.114 105.363 17.114C105.952 17.114 106.438 16.9493 106.819 16.62C107.2 16.2907 107.486 15.8053 107.677 15.164C107.868 14.5227 107.963 13.7427 107.963 12.824C107.963 11.4373 107.746 10.3973 107.313 9.704C106.897 8.99333 106.23 8.638 105.311 8.638ZM123.012 5.544C124.607 5.544 125.898 6.168 126.886 7.416C127.874 8.64667 128.368 10.4667 128.368 12.876C128.368 14.488 128.134 15.8487 127.666 16.958C127.198 18.05 126.557 18.8733 125.742 19.428C124.927 19.9827 123.983 20.26 122.908 20.26C122.232 20.26 121.643 20.1733 121.14 20C120.655 19.8267 120.239 19.6013 119.892 19.324C119.545 19.0467 119.242 18.752 118.982 18.44H118.774C118.843 18.7693 118.895 19.116 118.93 19.48C118.965 19.8267 118.982 20.1733 118.982 20.52V26.24H115.108V5.804H118.254L118.8 7.65H118.982C119.242 7.26867 119.554 6.922 119.918 6.61C120.282 6.28067 120.715 6.02067 121.218 5.83C121.738 5.63933 122.336 5.544 123.012 5.544ZM121.764 8.638C121.088 8.638 120.551 8.77667 120.152 9.054C119.753 9.33133 119.459 9.756 119.268 10.328C119.095 10.8827 118.999 11.5847 118.982 12.434V12.85C118.982 13.7687 119.069 14.5487 119.242 15.19C119.415 15.814 119.71 16.2907 120.126 16.62C120.542 16.9493 121.105 17.114 121.816 17.114C122.405 17.114 122.891 16.9493 123.272 16.62C123.653 16.2907 123.939 15.8053 124.13 15.164C124.321 14.5227 124.416 13.7427 124.416 12.824C124.416 11.4373 124.199 10.3973 123.766 9.704C123.35 8.99333 122.683 8.638 121.764 8.638ZM142.189 20H138.315V0.239999H142.189V20ZM152.061 5.518C153.968 5.518 155.424 5.934 156.429 6.766C157.452 7.58067 157.963 8.83733 157.963 10.536V20H155.259L154.505 18.076H154.401C154.002 18.5787 153.586 18.9947 153.153 19.324C152.737 19.6533 152.252 19.8873 151.697 20.026C151.16 20.182 150.492 20.26 149.695 20.26C148.863 20.26 148.109 20.104 147.433 19.792C146.774 19.4627 146.254 18.9687 145.873 18.31C145.492 17.634 145.301 16.7847 145.301 15.762C145.301 14.254 145.83 13.1447 146.887 12.434C147.944 11.706 149.53 11.3073 151.645 11.238L154.115 11.16V10.536C154.115 9.79067 153.916 9.24467 153.517 8.898C153.136 8.55133 152.598 8.378 151.905 8.378C151.212 8.378 150.536 8.482 149.877 8.69C149.218 8.88067 148.56 9.12333 147.901 9.418L146.627 6.792C147.39 6.39333 148.23 6.08133 149.149 5.856C150.085 5.63067 151.056 5.518 152.061 5.518ZM152.607 13.474C151.359 13.5087 150.492 13.734 150.007 14.15C149.522 14.566 149.279 15.112 149.279 15.788C149.279 16.3773 149.452 16.802 149.799 17.062C150.146 17.3047 150.596 17.426 151.151 17.426C151.983 17.426 152.685 17.1833 153.257 16.698C153.829 16.1953 154.115 15.4933 154.115 14.592V13.422L152.607 13.474ZM174.954 5.804V20H171.99L171.47 18.18H171.262C170.968 18.6653 170.586 19.064 170.118 19.376C169.668 19.6707 169.165 19.8873 168.61 20.026C168.056 20.182 167.484 20.26 166.894 20.26C165.889 20.26 165.005 20.078 164.242 19.714C163.48 19.35 162.89 18.7867 162.474 18.024C162.058 17.2613 161.85 16.2733 161.85 15.06V5.804H165.724V14.098C165.724 15.1033 165.906 15.866 166.27 16.386C166.634 16.906 167.215 17.166 168.012 17.166C168.81 17.166 169.425 16.984 169.858 16.62C170.309 16.256 170.621 15.7273 170.794 15.034C170.985 14.3407 171.08 13.4913 171.08 12.486V5.804H174.954ZM187.076 5.544C188.602 5.544 189.824 5.96 190.742 6.792C191.661 7.60667 192.12 8.924 192.12 10.744V20H188.246V11.706C188.246 10.6833 188.064 9.92067 187.7 9.418C187.336 8.898 186.756 8.638 185.958 8.638C184.78 8.638 183.974 9.04533 183.54 9.86C183.107 10.6573 182.89 11.81 182.89 13.318V20H179.016V5.804H181.98L182.5 7.624H182.708C183.02 7.13867 183.402 6.74867 183.852 6.454C184.303 6.142 184.806 5.91667 185.36 5.778C185.915 5.622 186.487 5.544 187.076 5.544ZM201.876 20.26C200.472 20.26 199.276 20.0087 198.288 19.506C197.3 18.986 196.546 18.1887 196.026 17.114C195.506 16.0393 195.246 14.6613 195.246 12.98C195.246 11.2467 195.541 9.834 196.13 8.742C196.72 7.65 197.534 6.844 198.574 6.324C199.632 5.804 200.845 5.544 202.214 5.544C203.185 5.544 204.026 5.63933 204.736 5.83C205.464 6.02067 206.097 6.246 206.634 6.506L205.49 9.496C204.884 9.25333 204.312 9.054 203.774 8.898C203.254 8.742 202.734 8.664 202.214 8.664C201.538 8.664 200.975 8.82867 200.524 9.158C200.074 9.47 199.736 9.94667 199.51 10.588C199.302 11.212 199.198 12.0007 199.198 12.954C199.198 13.89 199.311 14.67 199.536 15.294C199.779 15.9007 200.126 16.36 200.576 16.672C201.027 16.9667 201.573 17.114 202.214 17.114C203.029 17.114 203.748 17.01 204.372 16.802C204.996 16.5767 205.603 16.2733 206.192 15.892V19.194C205.603 19.5753 204.979 19.844 204.32 20C203.679 20.1733 202.864 20.26 201.876 20.26ZM213.334 4.27C213.334 4.96333 213.308 5.63067 213.256 6.272C213.221 6.91333 213.186 7.364 213.152 7.624H213.36C213.672 7.13867 214.036 6.74867 214.452 6.454C214.868 6.142 215.327 5.91667 215.83 5.778C216.35 5.622 216.896 5.544 217.468 5.544C218.49 5.544 219.383 5.726 220.146 6.09C220.908 6.454 221.498 7.01733 221.914 7.78C222.347 8.54267 222.564 9.53067 222.564 10.744V20H218.69V11.706C218.69 10.6833 218.499 9.92067 218.118 9.418C217.754 8.898 217.182 8.638 216.402 8.638C215.622 8.638 215.006 8.82 214.556 9.184C214.122 9.548 213.81 10.0767 213.62 10.77C213.429 11.4633 213.334 12.3127 213.334 13.318V20H209.46V0.239999H213.334V4.27ZM18.188 45.692C18.188 47.0787 18.0233 48.344 17.694 49.488C17.3647 50.632 16.862 51.6287 16.186 52.478C15.51 53.31 14.652 53.96 13.612 54.428L18.084 59.42H13.04L9.634 55.26C9.582 55.26 9.53 55.26 9.478 55.26C9.44333 55.26 9.4 55.26 9.348 55.26C7.84 55.26 6.52267 55.0347 5.396 54.584C4.28667 54.116 3.368 53.466 2.64 52.634C1.92933 51.7847 1.392 50.7707 1.028 49.592C0.681333 48.4133 0.508 47.1047 0.508 45.666C0.508 43.742 0.82 42.0693 1.444 40.648C2.08533 39.2267 3.056 38.126 4.356 37.346C5.67333 36.5487 7.346 36.15 9.374 36.15C11.3847 36.15 13.04 36.5487 14.34 37.346C15.64 38.126 16.602 39.2353 17.226 40.674C17.8673 42.0953 18.188 43.768 18.188 45.692ZM4.642 45.692C4.642 46.992 4.80667 48.11 5.136 49.046C5.46533 49.982 5.97667 50.7013 6.67 51.204C7.36333 51.7067 8.256 51.958 9.348 51.958C10.4747 51.958 11.376 51.7067 12.052 51.204C12.7453 50.7013 13.248 49.982 13.56 49.046C13.8893 48.11 14.054 46.992 14.054 45.692C14.054 43.7333 13.69 42.1993 12.962 41.09C12.234 39.9807 11.038 39.426 9.374 39.426C8.26467 39.426 7.36333 39.6773 6.67 40.18C5.97667 40.6827 5.46533 41.402 5.136 42.338C4.80667 43.274 4.642 44.392 4.642 45.692ZM34.7474 40.804V55H31.7834L31.2634 53.18H31.0554C30.7607 53.6653 30.3794 54.064 29.9114 54.376C29.4607 54.6707 28.958 54.8873 28.4034 55.026C27.8487 55.182 27.2767 55.26 26.6874 55.26C25.682 55.26 24.798 55.078 24.0354 54.714C23.2727 54.35 22.6834 53.7867 22.2674 53.024C21.8514 52.2613 21.6434 51.2733 21.6434 50.06V40.804H25.5174V49.098C25.5174 50.1033 25.6994 50.866 26.0634 51.386C26.4274 51.906 27.008 52.166 27.8054 52.166C28.6027 52.166 29.218 51.984 29.6514 51.62C30.102 51.256 30.414 50.7273 30.5874 50.034C30.778 49.3407 30.8734 48.4913 30.8734 47.486V40.804H34.7474ZM42.6833 40.804V55H38.8093V40.804H42.6833ZM40.7593 35.24C41.3313 35.24 41.8253 35.3787 42.2413 35.656C42.6573 35.916 42.8653 36.41 42.8653 37.138C42.8653 37.8487 42.6573 38.3427 42.2413 38.62C41.8253 38.8973 41.3313 39.036 40.7593 39.036C40.1699 39.036 39.6673 38.8973 39.2513 38.62C38.8526 38.3427 38.6533 37.8487 38.6533 37.138C38.6533 36.41 38.8526 35.916 39.2513 35.656C39.6673 35.3787 40.1699 35.24 40.7593 35.24ZM52.5031 55.26C51.0991 55.26 49.9031 55.0087 48.9151 54.506C47.9271 53.986 47.1731 53.1887 46.6531 52.114C46.1331 51.0393 45.8731 49.6613 45.8731 47.98C45.8731 46.2467 46.1678 44.834 46.7571 43.742C47.3465 42.65 48.1611 41.844 49.2011 41.324C50.2585 40.804 51.4718 40.544 52.8411 40.544C53.8118 40.544 54.6525 40.6393 55.3631 40.83C56.0911 41.0207 56.7238 41.246 57.2611 41.506L56.1171 44.496C55.5105 44.2533 54.9385 44.054 54.4011 43.898C53.8811 43.742 53.3611 43.664 52.8411 43.664C52.1651 43.664 51.6018 43.8287 51.1511 44.158C50.7005 44.47 50.3625 44.9467 50.1371 45.588C49.9291 46.212 49.8251 47.0007 49.8251 47.954C49.8251 48.89 49.9378 49.67 50.1631 50.294C50.4058 50.9007 50.7525 51.36 51.2031 51.672C51.6538 51.9667 52.1998 52.114 52.8411 52.114C53.6558 52.114 54.3751 52.01 54.9991 51.802C55.6231 51.5767 56.2298 51.2733 56.8191 50.892V54.194C56.2298 54.5753 55.6058 54.844 54.9471 55C54.3058 55.1733 53.4911 55.26 52.5031 55.26ZM63.9606 44.08C63.9606 44.6173 63.9346 45.1547 63.8826 45.692C63.8479 46.212 63.8046 46.7407 63.7526 47.278H63.8046C63.9779 47.0353 64.1513 46.7927 64.3246 46.55C64.5153 46.3073 64.7059 46.0647 64.8966 45.822C65.0873 45.5793 65.2866 45.3453 65.4946 45.12L69.4726 40.804H73.8406L68.1986 46.966L74.1786 55H69.7066L65.6246 49.254L63.9606 50.58V55H60.0866V35.24H63.9606V44.08ZM91.0235 40.544C92.5489 40.544 93.7709 40.96 94.6895 41.792C95.6082 42.6067 96.0675 43.924 96.0675 45.744V55H92.1935V46.706C92.1935 45.6833 92.0115 44.9207 91.6475 44.418C91.2835 43.898 90.7029 43.638 89.9055 43.638C88.7269 43.638 87.9209 44.0453 87.4875 44.86C87.0542 45.6573 86.8375 46.81 86.8375 48.318V55H82.9635V40.804H85.9275L86.4475 42.624H86.6555C86.9675 42.1387 87.3489 41.7487 87.7995 41.454C88.2502 41.142 88.7529 40.9167 89.3075 40.778C89.8622 40.622 90.4342 40.544 91.0235 40.544ZM112.947 47.876C112.947 49.0547 112.783 50.1033 112.453 51.022C112.141 51.9407 111.682 52.7207 111.075 53.362C110.486 53.986 109.767 54.4627 108.917 54.792C108.068 55.104 107.106 55.26 106.031 55.26C105.043 55.26 104.125 55.104 103.275 54.792C102.443 54.4627 101.724 53.986 101.117 53.362C100.511 52.7207 100.034 51.9407 99.6874 51.022C99.3581 50.1033 99.1934 49.0547 99.1934 47.876C99.1934 46.2987 99.4708 44.9727 100.025 43.898C100.58 42.806 101.377 41.974 102.417 41.402C103.457 40.83 104.688 40.544 106.109 40.544C107.444 40.544 108.623 40.83 109.645 41.402C110.668 41.974 111.474 42.806 112.063 43.898C112.653 44.9727 112.947 46.2987 112.947 47.876ZM103.145 47.876C103.145 48.812 103.241 49.6007 103.431 50.242C103.639 50.866 103.96 51.3427 104.393 51.672C104.827 51.984 105.39 52.14 106.083 52.14C106.777 52.14 107.331 51.984 107.747 51.672C108.181 51.3427 108.493 50.866 108.683 50.242C108.891 49.6007 108.995 48.812 108.995 47.876C108.995 46.94 108.891 46.16 108.683 45.536C108.493 44.912 108.181 44.444 107.747 44.132C107.314 43.82 106.751 43.664 106.057 43.664C105.035 43.664 104.289 44.0193 103.821 44.73C103.371 45.4233 103.145 46.472 103.145 47.876ZM122.129 52.166C122.562 52.166 122.978 52.1227 123.377 52.036C123.776 51.9493 124.174 51.8453 124.573 51.724V54.61C124.157 54.7833 123.637 54.9307 123.013 55.052C122.406 55.1907 121.739 55.26 121.011 55.26C120.162 55.26 119.399 55.1213 118.723 54.844C118.064 54.5667 117.536 54.09 117.137 53.414C116.756 52.7207 116.565 51.7673 116.565 50.554V43.716H114.719V42.078L116.851 40.778L117.969 37.788H120.439V40.804H124.417V43.716H120.439V50.554C120.439 51.0913 120.595 51.4987 120.907 51.776C121.219 52.036 121.626 52.166 122.129 52.166ZM133.273 40.544C134.59 40.544 135.717 40.7953 136.653 41.298C137.606 41.8007 138.343 42.5287 138.863 43.482C139.383 44.4353 139.643 45.6053 139.643 46.992V48.864H130.491C130.525 49.956 130.846 50.814 131.453 51.438C132.077 52.062 132.935 52.374 134.027 52.374C134.945 52.374 135.777 52.2873 136.523 52.114C137.268 51.9233 138.039 51.6373 138.837 51.256V54.246C138.143 54.5927 137.407 54.844 136.627 55C135.864 55.1733 134.937 55.26 133.845 55.26C132.423 55.26 131.167 55 130.075 54.48C128.983 53.9427 128.125 53.1367 127.501 52.062C126.877 50.9873 126.565 49.6353 126.565 48.006C126.565 46.342 126.842 44.964 127.397 43.872C127.969 42.7627 128.757 41.9307 129.763 41.376C130.768 40.8213 131.938 40.544 133.273 40.544ZM133.299 43.3C132.553 43.3 131.929 43.5427 131.427 44.028C130.941 44.5133 130.655 45.2673 130.569 46.29H136.003C136.003 45.718 135.899 45.2067 135.691 44.756C135.5 44.3053 135.205 43.95 134.807 43.69C134.408 43.43 133.905 43.3 133.299 43.3ZM155.518 52.166C155.951 52.166 156.367 52.1227 156.766 52.036C157.164 51.9493 157.563 51.8453 157.962 51.724V54.61C157.546 54.7833 157.026 54.9307 156.402 55.052C155.795 55.1907 155.128 55.26 154.4 55.26C153.55 55.26 152.788 55.1213 152.112 54.844C151.453 54.5667 150.924 54.09 150.526 53.414C150.144 52.7207 149.954 51.7673 149.954 50.554V43.716H148.108V42.078L150.24 40.778L151.358 37.788H153.828V40.804H157.806V43.716H153.828V50.554C153.828 51.0913 153.984 51.4987 154.296 51.776C154.608 52.036 155.015 52.166 155.518 52.166ZM173.707 47.876C173.707 49.0547 173.543 50.1033 173.213 51.022C172.901 51.9407 172.442 52.7207 171.835 53.362C171.246 53.986 170.527 54.4627 169.677 54.792C168.828 55.104 167.866 55.26 166.791 55.26C165.803 55.26 164.885 55.104 164.035 54.792C163.203 54.4627 162.484 53.986 161.877 53.362C161.271 52.7207 160.794 51.9407 160.447 51.022C160.118 50.1033 159.953 49.0547 159.953 47.876C159.953 46.2987 160.231 44.9727 160.785 43.898C161.34 42.806 162.137 41.974 163.177 41.402C164.217 40.83 165.448 40.544 166.869 40.544C168.204 40.544 169.383 40.83 170.405 41.402C171.428 41.974 172.234 42.806 172.823 43.898C173.413 44.9727 173.707 46.2987 173.707 47.876ZM163.905 47.876C163.905 48.812 164.001 49.6007 164.191 50.242C164.399 50.866 164.72 51.3427 165.153 51.672C165.587 51.984 166.15 52.14 166.843 52.14C167.537 52.14 168.091 51.984 168.507 51.672C168.941 51.3427 169.253 50.866 169.443 50.242C169.651 49.6007 169.755 48.812 169.755 47.876C169.755 46.94 169.651 46.16 169.443 45.536C169.253 44.912 168.941 44.444 168.507 44.132C168.074 43.82 167.511 43.664 166.817 43.664C165.795 43.664 165.049 44.0193 164.581 44.73C164.131 45.4233 163.905 46.472 163.905 47.876ZM200.433 55H195.441L187.355 40.96H187.251C187.268 41.3933 187.285 41.8353 187.303 42.286C187.32 42.7193 187.337 43.1613 187.355 43.612C187.389 44.0453 187.415 44.4873 187.433 44.938C187.45 45.3713 187.467 45.8133 187.485 46.264V55H183.975V36.436H188.941L197.001 50.346H197.079C197.061 49.9127 197.044 49.488 197.027 49.072C197.009 48.6387 196.992 48.214 196.975 47.798C196.975 47.3647 196.966 46.94 196.949 46.524C196.931 46.0907 196.914 45.6573 196.897 45.224V36.436H200.433V55ZM217.709 47.876C217.709 49.0547 217.544 50.1033 217.215 51.022C216.903 51.9407 216.444 52.7207 215.837 53.362C215.248 53.986 214.528 54.4627 213.679 54.792C212.83 55.104 211.868 55.26 210.793 55.26C209.805 55.26 208.886 55.104 208.037 54.792C207.205 54.4627 206.486 53.986 205.879 53.362C205.272 52.7207 204.796 51.9407 204.449 51.022C204.12 50.1033 203.955 49.0547 203.955 47.876C203.955 46.2987 204.232 44.9727 204.787 43.898C205.342 42.806 206.139 41.974 207.179 41.402C208.219 40.83 209.45 40.544 210.871 40.544C212.206 40.544 213.384 40.83 214.407 41.402C215.43 41.974 216.236 42.806 216.825 43.898C217.414 44.9727 217.709 46.2987 217.709 47.876ZM207.907 47.876C207.907 48.812 208.002 49.6007 208.193 50.242C208.401 50.866 208.722 51.3427 209.155 51.672C209.588 51.984 210.152 52.14 210.845 52.14C211.538 52.14 212.093 51.984 212.509 51.672C212.942 51.3427 213.254 50.866 213.445 50.242C213.653 49.6007 213.757 48.812 213.757 47.876C213.757 46.94 213.653 46.16 213.445 45.536C213.254 44.912 212.942 44.444 212.509 44.132C212.076 43.82 211.512 43.664 210.819 43.664C209.796 43.664 209.051 44.0193 208.583 44.73C208.132 45.4233 207.907 46.472 207.907 47.876ZM226.891 52.166C227.324 52.166 227.74 52.1227 228.139 52.036C228.537 51.9493 228.936 51.8453 229.335 51.724V54.61C228.919 54.7833 228.399 54.9307 227.775 55.052C227.168 55.1907 226.501 55.26 225.773 55.26C224.923 55.26 224.161 55.1213 223.485 54.844C222.826 54.5667 222.297 54.09 221.899 53.414C221.517 52.7207 221.327 51.7673 221.327 50.554V43.716H219.481V42.078L221.613 40.778L222.731 37.788H225.201V40.804H229.179V43.716H225.201V50.554C225.201 51.0913 225.357 51.4987 225.669 51.776C225.981 52.036 226.388 52.166 226.891 52.166ZM236.058 40.804V55H232.184V40.804H236.058ZM234.134 35.24C234.706 35.24 235.2 35.3787 235.616 35.656C236.032 35.916 236.24 36.41 236.24 37.138C236.24 37.8487 236.032 38.3427 235.616 38.62C235.2 38.8973 234.706 39.036 234.134 39.036C233.545 39.036 233.042 38.8973 232.626 38.62C232.228 38.3427 232.028 37.8487 232.028 37.138C232.028 36.41 232.228 35.916 232.626 35.656C233.042 35.3787 233.545 35.24 234.134 35.24ZM253.002 47.876C253.002 49.0547 252.837 50.1033 252.508 51.022C252.196 51.9407 251.737 52.7207 251.13 53.362C250.541 53.986 249.821 54.4627 248.972 54.792C248.123 55.104 247.161 55.26 246.086 55.26C245.098 55.26 244.179 55.104 243.33 54.792C242.498 54.4627 241.779 53.986 241.172 53.362C240.565 52.7207 240.089 51.9407 239.742 51.022C239.413 50.1033 239.248 49.0547 239.248 47.876C239.248 46.2987 239.525 44.9727 240.08 43.898C240.635 42.806 241.432 41.974 242.472 41.402C243.512 40.83 244.743 40.544 246.164 40.544C247.499 40.544 248.677 40.83 249.7 41.402C250.723 41.974 251.529 42.806 252.118 43.898C252.707 44.9727 253.002 46.2987 253.002 47.876ZM243.2 47.876C243.2 48.812 243.295 49.6007 243.486 50.242C243.694 50.866 244.015 51.3427 244.448 51.672C244.881 51.984 245.445 52.14 246.138 52.14C246.831 52.14 247.386 51.984 247.802 51.672C248.235 51.3427 248.547 50.866 248.738 50.242C248.946 49.6007 249.05 48.812 249.05 47.876C249.05 46.94 248.946 46.16 248.738 45.536C248.547 44.912 248.235 44.444 247.802 44.132C247.369 43.82 246.805 43.664 246.112 43.664C245.089 43.664 244.344 44.0193 243.876 44.73C243.425 45.4233 243.2 46.472 243.2 47.876ZM264.264 40.544C265.789 40.544 267.011 40.96 267.93 41.792C268.848 42.6067 269.308 43.924 269.308 45.744V55H265.434V46.706C265.434 45.6833 265.252 44.9207 264.888 44.418C264.524 43.898 263.943 43.638 263.146 43.638C261.967 43.638 261.161 44.0453 260.728 44.86C260.294 45.6573 260.078 46.81 260.078 48.318V55H256.204V40.804H259.168L259.688 42.624H259.896C260.208 42.1387 260.589 41.7487 261.04 41.454C261.49 41.142 261.993 40.9167 262.548 40.778C263.102 40.622 263.674 40.544 264.264 40.544ZM272.746 53.18C272.746 52.3827 272.962 51.828 273.396 51.516C273.829 51.1867 274.358 51.022 274.982 51.022C275.588 51.022 276.108 51.1867 276.542 51.516C276.975 51.828 277.192 52.3827 277.192 53.18C277.192 53.9427 276.975 54.4973 276.542 54.844C276.108 55.1733 275.588 55.338 274.982 55.338C274.358 55.338 273.829 55.1733 273.396 54.844C272.962 54.4973 272.746 53.9427 272.746 53.18Z" fill="white"/>
</svg>
