<svg width="168" height="69" viewBox="0 0 168 69" fill="none" xmlns="http://www.w3.org/2000/svg">
<g clip-path="url(#clip0_93_379)">
<path d="M161.274 11.5H17.7258C14.5546 11.5 11.9839 14.0744 11.9839 17.25V51.75C11.9839 54.9256 14.5546 57.5 17.7258 57.5H161.274C164.445 57.5 167.016 54.9256 167.016 51.75V17.25C167.016 14.0744 164.445 11.5 161.274 11.5Z" fill="black"/>
<path d="M161.274 12.42C162.552 12.423 163.778 12.9329 164.681 13.838C165.585 14.7432 166.094 15.9699 166.097 17.25V51.75C166.097 53.031 165.589 54.2595 164.685 55.1653C163.78 56.0711 162.553 56.58 161.274 56.58H17.7258C16.4466 56.58 15.2198 56.0711 14.3153 55.1653C13.4107 54.2595 12.9026 53.031 12.9026 51.75V17.25C12.9056 15.9699 13.4148 14.7432 14.3186 13.838C15.2225 12.9329 16.4475 12.423 17.7258 12.42H161.274ZM161.274 11.5H17.7258C16.203 11.5 14.7425 12.1058 13.6656 13.1841C12.5888 14.2625 11.9839 15.725 11.9839 17.25V51.75C11.9839 53.275 12.5888 54.7375 13.6656 55.8159C14.7425 56.8942 16.203 57.5 17.7258 57.5H161.274C162.797 57.5 164.258 56.8942 165.334 55.8159C166.411 54.7375 167.016 53.275 167.016 51.75V17.25C167.016 15.725 166.411 14.2625 165.334 13.1841C164.258 12.1058 162.797 11.5 161.274 11.5Z" fill="#A6A6A6"/>
<path d="M86.3075 26.2085C85.4636 26.213 84.6399 26.4678 83.9404 26.9406C83.2409 27.4135 82.6969 28.0832 82.3771 28.8653C82.0573 29.6473 81.9759 30.5068 82.1433 31.3351C82.3108 32.1634 82.7194 32.9236 83.3178 33.5195C83.9161 34.1155 84.6774 34.5207 85.5054 34.6839C86.3335 34.8471 87.1913 34.7611 87.9705 34.4366C88.7498 34.1122 89.4156 33.5638 89.884 32.8608C90.3525 32.1578 90.6024 31.3316 90.6025 30.4865C90.6103 29.9206 90.5043 29.3589 90.2909 28.8348C90.0776 28.3108 89.7611 27.835 89.3604 27.4359C88.9597 27.0368 88.483 26.7224 87.9585 26.5116C87.434 26.3007 86.8725 26.1977 86.3075 26.2085ZM86.3075 33.1085C85.7874 33.1455 85.2683 33.0247 84.8178 32.762C84.3672 32.4993 84.0061 32.1068 83.7816 31.6356C83.557 31.1645 83.4793 30.6365 83.5586 30.1205C83.638 29.6045 83.8707 29.1244 84.2264 28.7427C84.5821 28.361 85.0444 28.0955 85.553 27.9806C86.0616 27.8658 86.5929 27.9071 87.0778 28.099C87.5626 28.2909 87.9785 28.6246 88.2713 29.0566C88.5641 29.4886 88.7201 29.9989 88.7191 30.521C88.7298 30.8476 88.6758 31.1731 88.5601 31.4787C88.4444 31.7843 88.2693 32.0638 88.0451 32.3012C87.8208 32.5387 87.5518 32.7292 87.2535 32.8618C86.9553 32.9945 86.6337 33.0666 86.3075 33.074V33.1085ZM76.9596 26.2085C76.1157 26.213 75.292 26.4678 74.5925 26.9406C73.893 27.4135 73.349 28.0832 73.0292 28.8653C72.7094 29.6473 72.6281 30.5068 72.7955 31.3351C72.9629 32.1634 73.3716 32.9236 73.9699 33.5195C74.5683 34.1155 75.3295 34.5207 76.1576 34.6839C76.9856 34.8471 77.8434 34.7611 78.6227 34.4366C79.4019 34.1122 80.0678 33.5638 80.5362 32.8608C81.0046 32.1578 81.2546 31.3316 81.2546 30.4865C81.2624 29.9206 81.1564 29.3589 80.9431 28.8348C80.7297 28.3108 80.4133 27.835 80.0126 27.4359C79.6119 27.0368 79.1351 26.7224 78.6106 26.5116C78.0861 26.3007 77.5247 26.1977 76.9596 26.2085ZM76.9596 33.1085C76.4396 33.1455 75.9205 33.0247 75.4699 32.762C75.0194 32.4993 74.6583 32.1068 74.4337 31.6356C74.2091 31.1645 74.1314 30.6365 74.2108 30.1205C74.2901 29.6045 74.5228 29.1244 74.8785 28.7427C75.2343 28.361 75.6965 28.0955 76.2051 27.9806C76.7137 27.8658 77.2451 27.9071 77.7299 28.099C78.2148 28.2909 78.6307 28.6246 78.9234 29.0566C79.2162 29.4886 79.3722 29.9989 79.3712 30.521C79.3819 30.8476 79.3279 31.1731 79.2122 31.4787C79.0965 31.7843 78.9214 32.0638 78.6972 32.3012C78.4729 32.5387 78.2039 32.7292 77.9057 32.8618C77.6074 32.9945 77.2859 33.0666 76.9596 33.074V33.1085ZM65.8432 27.554V29.371H70.1726C70.1191 30.229 69.7701 31.0419 69.185 31.671C68.7504 32.1104 68.2281 32.4533 67.6523 32.6772C67.0766 32.9011 66.4601 33.001 65.8432 32.9705C64.6062 32.91 63.4399 32.3753 62.5858 31.4772C61.7317 30.5791 61.2553 29.3865 61.2553 28.1463C61.2553 26.906 61.7317 25.7134 62.5858 24.8153C63.4399 23.9172 64.6062 23.3825 65.8432 23.322C67.0593 23.3057 68.2322 23.7731 69.1046 24.6215L70.3908 23.3335C69.7861 22.7367 69.068 22.2674 68.279 21.9533C67.49 21.6393 66.6461 21.4868 65.7973 21.505C64.9031 21.4677 64.0107 21.6119 63.1737 21.9289C62.3366 22.2458 61.5722 22.729 60.9263 23.3494C60.2805 23.9697 59.7666 24.7145 59.4156 25.5388C59.0645 26.3632 58.8836 27.2501 58.8836 28.1463C58.8836 29.0424 59.0645 29.9293 59.4156 30.7537C59.7666 31.578 60.2805 32.3228 60.9263 32.9431C61.5722 33.5635 62.3366 34.0467 63.1737 34.3636C64.0107 34.6806 64.9031 34.8248 65.7973 34.7875C66.6508 34.8185 67.5012 34.6685 68.2928 34.3474C69.0844 34.0264 69.7994 33.5415 70.3908 32.9245C71.483 31.7768 72.0775 30.243 72.0445 28.658C72.0525 28.2726 72.0217 27.8873 71.9526 27.508L65.8432 27.554ZM111.319 28.9685C111.068 28.184 110.579 27.4972 109.921 27.0028C109.262 26.5084 108.467 26.2309 107.645 26.2085C107.096 26.2125 106.553 26.3276 106.05 26.5471C105.547 26.7666 105.094 27.0858 104.717 27.4856C104.34 27.8853 104.048 28.3573 103.859 28.873C103.669 29.3888 103.586 29.9376 103.614 30.4865C103.601 31.0488 103.702 31.6078 103.91 32.1302C104.118 32.6525 104.43 33.1276 104.825 33.5268C105.221 33.9261 105.692 34.2415 106.212 34.4542C106.732 34.6668 107.29 34.7724 107.851 34.7645C108.555 34.7693 109.25 34.5983 109.871 34.267C110.493 33.9357 111.022 33.4546 111.411 32.867L109.953 31.901C109.732 32.2586 109.422 32.5526 109.054 32.7542C108.685 32.9558 108.271 33.0581 107.851 33.051C107.418 33.0679 106.989 32.9542 106.62 32.7246C106.252 32.495 105.961 32.16 105.784 31.763L111.526 29.394L111.319 28.9685ZM105.497 30.3945C105.47 30.0764 105.509 29.7562 105.612 29.4542C105.716 29.1522 105.881 28.875 106.097 28.6402C106.313 28.4055 106.575 28.2184 106.867 28.0908C107.16 27.9632 107.475 27.8978 107.794 27.899C108.118 27.8779 108.441 27.9528 108.723 28.1143C109.005 28.2759 109.233 28.517 109.379 28.8075L105.497 30.3945ZM100.903 34.5345H102.787V21.942H100.903V34.5345ZM97.7914 27.2205H97.7225C97.4301 26.9061 97.0738 26.6581 96.6776 26.4935C96.2813 26.3288 95.8544 26.2512 95.4257 26.266C94.2927 26.266 93.2061 26.7167 92.4049 27.519C91.6038 28.3213 91.1537 29.4094 91.1537 30.544C91.1537 31.6786 91.6038 32.7667 92.4049 33.569C93.2061 34.3713 94.2927 34.822 95.4257 34.822C95.8568 34.8386 96.2862 34.7595 96.6833 34.5905C97.0803 34.4215 97.4352 34.1668 97.7225 33.8445H97.7914V34.4655C97.84 34.7882 97.8159 35.1176 97.7208 35.4297C97.6257 35.7418 97.462 36.0286 97.2417 36.2691C97.0214 36.5095 96.7502 36.6975 96.4478 36.8193C96.1455 36.941 95.8198 36.9933 95.4946 36.9725C95.0265 36.962 94.5721 36.812 94.1896 36.5416C93.807 36.2712 93.5137 35.8927 93.3471 35.4545L91.7164 36.133C92.0203 36.8854 92.543 37.529 93.2168 37.9801C93.8905 38.4313 94.6841 38.6692 95.4946 38.663C97.6995 38.663 99.5599 37.3635 99.5599 34.201V26.473H97.7799L97.7914 27.2205ZM95.6324 33.1315C95.3071 33.1227 94.9868 33.049 94.6904 32.9147C94.3939 32.7804 94.1272 32.5882 93.9058 32.3494C93.6844 32.1105 93.5129 31.8299 93.4012 31.5238C93.2894 31.2178 93.2398 30.8925 93.2552 30.567C93.2382 30.2389 93.2865 29.9106 93.3971 29.6012C93.5077 29.2919 93.6784 29.0075 93.8995 28.7647C94.1206 28.5219 94.3877 28.3255 94.6851 28.1868C94.9826 28.048 95.3045 27.9698 95.6324 27.9565C95.9564 27.9709 96.2743 28.0506 96.5668 28.1908C96.8594 28.331 97.1207 28.5289 97.3351 28.7726C97.5496 29.0164 97.7127 29.3009 97.8148 29.6092C97.9168 29.9175 97.9557 30.2433 97.9292 30.567C97.9461 30.8834 97.8999 31.2001 97.793 31.4983C97.6862 31.7966 97.521 32.0705 97.3071 32.304C97.0932 32.5375 96.8348 32.7259 96.5473 32.8581C96.2597 32.9904 95.9486 33.0637 95.6324 33.074V33.1315ZM120.116 21.9995H115.683V34.5575H117.555V29.7965H120.173C120.71 29.8378 121.249 29.7676 121.757 29.5904C122.265 29.4132 122.731 29.1328 123.126 28.7668C123.52 28.4007 123.835 27.957 124.051 27.4633C124.266 26.9696 124.377 26.4367 124.377 25.898C124.377 25.3593 124.266 24.8264 124.051 24.3327C123.835 23.839 123.52 23.3953 123.126 23.0292C122.731 22.6632 122.265 22.3828 121.757 22.2056C121.249 22.0284 120.71 21.9582 120.173 21.9995H120.116ZM120.116 28.0485H117.452V23.69H120.116C120.686 23.69 121.232 23.9166 121.635 24.3199C122.037 24.7232 122.263 25.2702 122.263 25.8405C122.263 26.4109 122.037 26.9578 121.635 27.3611C121.232 27.7644 120.686 27.991 120.116 27.991V28.0485ZM131.761 26.1855C131.076 26.1444 130.394 26.3057 129.8 26.6491C129.206 26.9926 128.726 27.5031 128.419 28.1175L130.084 28.8075C130.248 28.5037 130.498 28.2547 130.802 28.0912C131.106 27.9278 131.451 27.857 131.795 27.8875C132.27 27.8426 132.743 27.9881 133.111 28.292C133.48 28.5959 133.712 29.0335 133.759 29.509V29.6355C133.158 29.3151 132.487 29.1492 131.807 29.1525C130.015 29.1525 128.189 30.13 128.189 31.9815C128.206 32.3694 128.302 32.7499 128.469 33.1004C128.636 33.4508 128.871 33.764 129.162 34.0215C129.452 34.2789 129.791 34.4753 130.158 34.599C130.526 34.7227 130.915 34.7712 131.301 34.7415C131.773 34.7703 132.244 34.6712 132.664 34.4547C133.085 34.2382 133.439 33.9122 133.69 33.511H133.759V34.4885H135.562V29.67C135.569 29.1824 135.473 28.6988 135.281 28.251C135.088 27.8032 134.802 27.4015 134.443 27.0722C134.084 26.743 133.659 26.4937 133.197 26.3408C132.734 26.188 132.245 26.1351 131.761 26.1855ZM131.531 33.0855C130.922 33.0855 130.061 32.7865 130.061 32.016C130.061 31.05 131.129 30.682 132.048 30.682C132.645 30.6649 133.235 30.8079 133.759 31.096C133.682 31.6408 133.413 32.1399 133 32.5029C132.587 32.8658 132.057 33.0684 131.508 33.074L131.531 33.0855ZM142.096 26.4615L139.949 31.9125H139.88L137.652 26.4615H135.642L138.984 34.0745L137.078 38.318H139.03L144.175 26.4615H142.096ZM125.226 34.5115H127.167V21.942H125.295L125.226 34.5115Z" fill="white"/>
<path d="M23.973 20.171C23.5918 20.622 23.3985 21.2026 23.4333 21.7925V47.219C23.3985 47.8089 23.5918 48.3895 23.973 48.8405L24.0534 48.921L38.2819 34.6725V34.339L24.0534 20.0905L23.973 20.171Z" fill="url(#paint0_linear_93_379)"/>
<path d="M43.0248 39.422L38.2819 34.6725V34.339L43.0248 29.5895H43.1281L48.7437 32.7865C50.3515 33.695 50.3515 35.19 48.7437 36.11L43.1281 39.307L43.0248 39.422Z" fill="url(#paint1_linear_93_379)"/>
<path d="M43.1281 39.3645L38.2819 34.5L23.973 48.8405C24.2989 49.1281 24.715 49.2924 25.1492 49.305C25.5833 49.3176 26.0082 49.1777 26.3502 48.9095L43.1281 39.3645Z" fill="url(#paint2_linear_93_379)"/>
<path d="M43.1281 29.647L26.3502 20.102C26.0091 19.8317 25.5838 19.6904 25.1491 19.703C24.7143 19.7156 24.2979 19.8813 23.973 20.171L38.2819 34.5L43.1281 29.647Z" fill="url(#paint3_linear_93_379)"/>
<path opacity="0.2" d="M43.0248 39.261L26.3502 48.737C26.0194 48.987 25.6162 49.1223 25.2018 49.1223C24.7874 49.1223 24.3842 48.987 24.0534 48.737L23.973 48.829L24.0534 48.9095C24.3842 49.1595 24.7874 49.2948 25.2018 49.2948C25.6162 49.2948 26.0194 49.1595 26.3502 48.9095L43.1281 39.3645L43.0248 39.261Z" fill="black"/>
<path opacity="0.12" d="M23.973 48.668C23.5946 48.2199 23.4015 47.644 23.4333 47.058V47.219C23.3985 47.8089 23.5918 48.3895 23.973 48.8405L24.0534 48.7485L23.973 48.668Z" fill="black"/>
<path opacity="0.12" d="M48.7437 35.995L43.0018 39.261L43.1052 39.3645L48.7208 36.1675C49.0523 36.023 49.3391 35.792 49.5512 35.4987C49.7633 35.2055 49.8929 34.8605 49.9266 34.5C49.86 34.8245 49.7184 35.1289 49.5129 35.3885C49.3075 35.6482 49.044 35.8559 48.7437 35.995Z" fill="black"/>
<path opacity="0.25" d="M26.3502 20.3205L48.7437 32.9705C49.0464 33.1064 49.3131 33.3113 49.5225 33.5689C49.7319 33.8265 49.8782 34.1296 49.9496 34.454C49.9139 34.0955 49.7834 33.753 49.5714 33.4619C49.3595 33.1708 49.0737 32.9416 48.7437 32.798L26.3502 20.102C24.7539 19.1935 23.4333 19.9525 23.4333 21.7925V21.9535C23.4333 20.1135 24.7539 19.3545 26.3502 20.3205Z" fill="white"/>
<path d="M59.9865 42.5845L64.4766 42.1705C65.625 42.0785 66.5552 42.0325 67.2328 41.998V42.826C66.5627 42.8024 65.8922 42.8564 65.2346 42.987C64.576 43.2419 64.007 43.6854 63.5985 44.2621C63.1901 44.8389 62.9603 45.5233 62.9378 46.23C62.9378 48.231 64.7982 48.8635 66.4634 48.921L66.1648 49.795C64.2699 49.7145 62.111 48.645 62.111 46.4025C62.1162 45.7138 62.2933 45.0374 62.6263 44.4349C62.9592 43.8323 63.4374 43.3227 64.0173 42.9525C63.1101 43.056 60.3195 43.3205 59.217 43.5505L59.1252 42.642C59.4697 42.6305 59.7912 42.6075 59.9865 42.5845ZM66.6356 45.517L66.1074 45.77C65.8679 45.2589 65.5835 44.7701 65.2575 44.3095L65.7858 44.0795C66.1024 44.5381 66.3864 45.0184 66.6356 45.517ZM67.784 45.0685L67.2443 45.3215C66.992 44.8174 66.6961 44.3364 66.36 43.884L66.8768 43.6425C67.1639 43.9875 67.5658 44.62 67.8185 45.0685H67.784Z" fill="white" stroke="white" stroke-width="0.2" stroke-miterlimit="10"/>
<path d="M78.085 46.874H73.836V49.174C73.836 49.7145 73.6752 49.9445 73.2963 50.071C72.5938 50.2137 71.8752 50.2601 71.1603 50.209C71.081 49.9395 70.9691 49.6808 70.8272 49.4385C71.7 49.4385 72.5039 49.4385 72.745 49.4385C72.9862 49.4385 73.0666 49.3695 73.0666 49.151V46.851H68.8176V46.092H73.0666V44.4705H69.5066V43.7345H73.0666V42.1705C71.9182 42.297 70.7698 42.366 69.6903 42.412C69.6567 42.1779 69.591 41.9496 69.4951 41.7335C71.8504 41.6869 74.1943 41.3939 76.4888 40.8595L77.063 41.4805C76.0058 41.7718 74.9265 41.9757 73.836 42.09V43.7575H77.4994V44.4705H73.836V46.1495H78.085V46.874Z" fill="white" stroke="white" stroke-width="0.2" stroke-miterlimit="10"/>
<path d="M81.2316 41.6875C81.1742 41.86 81.0823 42.1935 81.0364 42.3775C80.763 43.6686 80.5979 44.9803 80.5426 46.299C80.5403 46.7717 80.5672 47.2441 80.623 47.7135C80.7952 47.242 81.0249 46.644 81.1857 46.2415L81.6336 46.575C81.3521 47.3283 81.1106 48.0961 80.9101 48.875C80.8942 49.0241 80.8942 49.1744 80.9101 49.3235V49.6915H80.1751C79.9065 48.6163 79.7791 47.5107 79.7961 46.4025C79.8484 45.0246 80.002 43.6523 80.2555 42.297C80.2555 42.0555 80.3244 41.7795 80.3244 41.5725L81.2316 41.6875ZM83.5284 46.6555C83.4391 46.9619 83.3927 47.2793 83.3906 47.5985C83.3906 48.0585 83.7006 48.5185 85.1017 48.5185C85.9549 48.5264 86.8063 48.4376 87.6396 48.254V49.0705C86.7945 49.221 85.937 49.2903 85.0787 49.2775C83.3676 49.2775 82.5982 48.714 82.5982 47.748C82.6189 47.36 82.6766 46.9749 82.7705 46.598L83.5284 46.6555ZM83.115 42.4695C84.5145 42.6422 85.93 42.6422 87.3295 42.4695V43.3205C85.9309 43.4355 84.5251 43.4355 83.1264 43.3205L83.115 42.4695Z" fill="white" stroke="white" stroke-width="0.2" stroke-miterlimit="10"/>
<path d="M94.2888 41.423C94.1878 43.0431 94.534 44.6598 95.2896 46.0959C96.0451 47.532 97.1809 48.7322 98.5723 49.565C98.3429 49.7565 98.1349 49.9725 97.9521 50.209C96.9135 49.581 96.014 48.747 95.309 47.7582C94.604 46.7694 94.1083 45.6466 93.8524 44.459C93.5784 45.6425 93.073 46.76 92.3654 47.7469C91.6578 48.7339 90.762 49.5706 89.7297 50.209C89.5176 49.9823 89.2829 49.7781 89.0292 49.5995C91.3259 48.4495 92.5892 46.322 93.2208 43.424L93.6801 43.493C93.6099 43.055 93.5639 42.6135 93.5423 42.1705H90.9929V41.4115L94.2888 41.423Z" fill="white" stroke="white" stroke-width="0.2" stroke-miterlimit="10"/>
<path d="M108.644 48.622C108.405 48.8864 108.115 49.0993 107.791 49.2476C107.467 49.3959 107.116 49.4765 106.76 49.4845C106.094 49.4845 105.612 49.0245 105.612 48.1735C105.612 47.0235 105.991 45.356 105.991 44.3555C106.008 44.2434 105.998 44.1289 105.964 44.021C105.929 43.9132 105.87 43.8147 105.791 43.7335C105.712 43.6522 105.615 43.5903 105.509 43.5526C105.402 43.5149 105.288 43.5023 105.175 43.516C103.982 43.8237 102.923 44.5194 102.167 45.494C102.167 45.931 102.167 46.3335 102.167 46.644C102.167 47.5755 102.167 48.1965 102.167 49.1165C102.167 49.289 102.167 49.5535 102.224 49.7375H101.317C101.317 49.588 101.317 49.289 101.317 49.128C101.317 48.139 101.317 47.633 101.317 46.4945C101.317 46.391 101.317 46.253 101.317 46.1035C100.812 46.8625 100.169 47.84 99.6517 48.5185L99.135 47.8055C99.6977 47.0925 100.881 45.5055 101.432 44.689C101.432 44.367 101.432 44.0335 101.432 43.7115C100.972 43.7115 100.077 43.884 99.445 43.9645L99.3532 43.1135C99.5787 43.1305 99.8052 43.1305 100.031 43.1135C100.364 43.1135 100.961 43.033 101.489 42.941C101.489 42.458 101.489 42.09 101.489 41.9865C101.512 41.7302 101.512 41.4723 101.489 41.216H102.465C102.465 41.4575 102.327 42.044 102.259 42.757L102.557 43.125C102.431 43.309 102.259 43.585 102.098 43.838C101.937 44.091 102.098 44.2175 102.098 44.413C102.934 43.5226 104.033 42.9224 105.233 42.6995C105.422 42.673 105.615 42.6894 105.797 42.7476C105.979 42.8058 106.146 42.9043 106.285 43.0357C106.424 43.1671 106.531 43.3281 106.6 43.5068C106.668 43.6855 106.695 43.8773 106.68 44.068C106.68 45.0915 106.289 46.8625 106.289 47.8975C106.289 48.254 106.462 48.5185 106.818 48.5185C107.118 48.49 107.408 48.4009 107.673 48.2566C107.937 48.1123 108.17 47.9158 108.357 47.679L108.644 48.622Z" fill="white" stroke="white" stroke-width="0.2" stroke-miterlimit="10"/>
<path d="M114.409 44.2405C114.409 44.919 114.466 45.908 114.512 46.805C115.694 47.1311 116.783 47.7297 117.693 48.553L117.199 49.312C116.452 48.5602 115.545 47.9864 114.546 47.633C114.546 47.8975 114.546 48.1275 114.546 48.3115C114.546 49.151 114.03 49.8755 112.663 49.8755C111.296 49.8755 110.205 49.4155 110.205 48.254C110.205 47.3225 111.021 46.5635 112.789 46.5635C113.077 46.5655 113.365 46.5847 113.651 46.621C113.651 45.793 113.57 44.85 113.57 44.2405C113.57 43.631 113.57 42.803 113.57 42.366C113.568 42.0272 113.541 41.689 113.49 41.354H114.535C114.535 41.5725 114.466 42.0555 114.454 42.366C114.443 42.6765 114.454 43.01 114.454 43.4125C115.27 43.4125 116.567 43.3435 117.486 43.217V44.0105C116.567 44.091 115.258 44.1485 114.42 44.1715L114.409 44.2405ZM113.708 47.403C113.38 47.3289 113.045 47.2941 112.709 47.2995C111.652 47.2995 111.055 47.656 111.055 48.2195C111.055 48.783 111.618 49.0935 112.606 49.0935C113.352 49.0935 113.754 48.7485 113.754 48.047C113.719 47.9205 113.708 47.656 113.708 47.403Z" fill="white" stroke="white" stroke-width="0.2" stroke-miterlimit="10"/>
<path d="M123.848 44.4705C122.896 44.5009 121.955 44.6794 121.058 44.9995C120.748 45.08 120.449 45.2065 120.196 45.2985L119.944 44.344C120.219 44.344 120.575 44.252 120.874 44.183C121.871 43.9047 122.895 43.7388 123.929 43.6885C124.251 43.6528 124.577 43.6857 124.885 43.7852C125.194 43.8847 125.478 44.0485 125.719 44.2657C125.959 44.483 126.152 44.7488 126.283 45.0457C126.413 45.3426 126.48 45.6639 126.478 45.9885C126.478 48.2195 124.503 49.4385 121.885 49.8755L121.402 49.082C123.883 48.7715 125.64 47.8055 125.64 45.954C125.594 45.126 124.87 44.4705 123.848 44.4705ZM125.663 41.791L125.536 42.596C124.388 42.5155 122.332 42.3085 121.173 42.1015L121.31 41.3195C122.745 41.6052 124.201 41.7782 125.663 41.837V41.791Z" fill="white" stroke="white" stroke-width="0.2" stroke-miterlimit="10"/>
</g>
<defs>
<linearGradient id="paint0_linear_93_379" x1="37.0187" y1="21.5165" x2="17.7217" y2="40.7979" gradientUnits="userSpaceOnUse">
<stop stop-color="#00A0FF"/>
<stop offset="0.01" stop-color="#00A1FF"/>
<stop offset="0.26" stop-color="#00BEFF"/>
<stop offset="0.51" stop-color="#00D2FF"/>
<stop offset="0.76" stop-color="#00DFFF"/>
<stop offset="1" stop-color="#00E3FF"/>
</linearGradient>
<linearGradient id="paint1_linear_93_379" x1="50.8338" y1="34.5" x2="23.0543" y2="34.5" gradientUnits="userSpaceOnUse">
<stop stop-color="#FFE000"/>
<stop offset="0.41" stop-color="#FFBD00"/>
<stop offset="0.78" stop-color="#FFA500"/>
<stop offset="1" stop-color="#FF9C00"/>
</linearGradient>
<linearGradient id="paint2_linear_93_379" x1="40.4983" y1="37.145" x2="14.3243" y2="63.2823" gradientUnits="userSpaceOnUse">
<stop stop-color="#FF3A44"/>
<stop offset="1" stop-color="#C31162"/>
</linearGradient>
<linearGradient id="paint3_linear_93_379" x1="20.3671" y1="11.707" x2="32.0511" y2="23.3746" gradientUnits="userSpaceOnUse">
<stop stop-color="#32A071"/>
<stop offset="0.07" stop-color="#2DA771"/>
<stop offset="0.48" stop-color="#15CF74"/>
<stop offset="0.8" stop-color="#06E775"/>
<stop offset="1" stop-color="#00F076"/>
</linearGradient>
<clipPath id="clip0_93_379">
<rect width="167" height="69" fill="white" transform="translate(0.5)"/>
</clipPath>
</defs>
</svg>
