<svg width="126" height="46" viewBox="0 0 126 46" fill="none" xmlns="http://www.w3.org/2000/svg">
<path d="M114.557 0H11.4492C11.0281 0 10.612 0 10.192 0.0023C9.84047 0.0046 9.4917 0.0112815 9.13676 0.016905C8.36566 0.0259921 7.59637 0.0939277 6.83558 0.220122C6.07585 0.349063 5.33993 0.592153 4.6527 0.941171C3.9663 1.29314 3.33912 1.75049 2.79392 2.29663C2.24584 2.84123 1.78898 3.47072 1.4409 4.16088C1.09186 4.84968 0.849835 5.58778 0.723182 6.3497C0.595326 7.11066 0.526525 7.8804 0.517398 8.652C0.506741 9.00459 0.505615 9.35835 0.5 9.71099V36.2924C0.505615 36.6495 0.506741 36.9954 0.517398 37.3526C0.526528 38.1241 0.595329 38.8938 0.723182 39.6548C0.849485 40.4171 1.09153 41.1557 1.4409 41.8447C1.78883 42.5326 2.24575 43.1596 2.79392 43.7011C3.33706 44.2497 3.96464 44.7074 4.6527 45.0567C5.33993 45.4066 6.07577 45.6511 6.83558 45.7821C7.5965 45.9073 8.36571 45.9752 9.13676 45.9854C9.4917 45.9932 9.84047 45.9977 10.192 45.9977C10.612 46 11.0281 46 11.4492 46H114.557C114.97 46 115.389 46 115.802 45.9977C116.152 45.9977 116.511 45.9932 116.86 45.9854C117.63 45.9758 118.398 45.9078 119.157 45.7821C119.919 45.6502 120.658 45.4058 121.348 45.0567C122.036 44.7072 122.663 44.2495 123.206 43.7011C123.752 43.1575 124.21 42.531 124.562 41.8447C124.909 41.1552 125.149 40.4167 125.273 39.6548C125.401 38.8937 125.473 38.1242 125.487 37.3526C125.491 36.9954 125.491 36.6495 125.491 36.2924C125.5 35.8746 125.5 35.4591 125.5 35.0345V10.9665C125.5 10.5454 125.5 10.1276 125.491 9.71099C125.491 9.35835 125.491 9.00459 125.487 8.65196C125.473 7.88029 125.401 7.11072 125.273 6.34966C125.149 5.58817 124.909 4.85013 124.562 4.16084C123.854 2.77748 122.73 1.65143 121.348 0.941068C120.658 0.592902 119.919 0.349876 119.157 0.220018C118.398 0.0932682 117.63 0.0253089 116.86 0.016744C116.511 0.011132 116.152 0.004393 115.802 0.0021505C115.389 0 114.97 0 114.557 0Z" fill="#A6A6A6"/>
<path d="M10.1977 44.9938C9.84777 44.9938 9.50634 44.9893 9.15921 44.9814C8.44009 44.9721 7.72265 44.9094 7.01278 44.7939C6.35086 44.6797 5.70963 44.4674 5.11026 44.1638C4.51638 43.8628 3.97471 43.468 3.50601 42.9947C3.03052 42.527 2.63466 41.9845 2.3341 41.3887C2.03023 40.7891 1.81994 40.1464 1.71055 39.483C1.59241 38.7701 1.52849 38.0493 1.51934 37.3267C1.51206 37.0842 1.50253 36.2766 1.50253 36.2766V9.711C1.50253 9.711 1.51268 8.91588 1.5194 8.68228C1.52816 7.96086 1.59171 7.24116 1.70949 6.5294C1.81909 5.86414 2.02954 5.21957 2.33357 4.61798C2.63302 4.02264 3.02669 3.47975 3.49931 3.01034C3.9714 2.53647 4.5148 2.1397 5.10969 1.8345C5.70769 1.53191 6.3477 1.32105 7.00829 1.20897C7.72049 1.09232 8.44042 1.02925 9.16203 1.0203L10.1982 1.00626H115.796L116.845 1.02086C117.56 1.02937 118.273 1.09187 118.979 1.20784C119.646 1.32133 120.293 1.53366 120.898 1.83787C122.089 2.45294 123.059 3.42604 123.671 4.62079C123.97 5.21822 124.177 5.85754 124.286 6.51706C124.405 7.23466 124.471 7.96002 124.485 8.68735C124.488 9.01303 124.488 9.36286 124.488 9.71101C124.498 10.1423 124.498 10.5527 124.498 10.9666V35.0345C124.498 35.4523 124.498 35.86 124.488 36.271C124.488 36.645 124.488 36.9876 124.484 37.3402C124.471 38.0545 124.405 38.7669 124.288 39.4717C124.181 40.1399 123.971 40.7876 123.668 41.3922C123.365 41.9815 122.971 42.5193 122.501 42.9857C122.032 43.4616 121.49 43.8586 120.894 44.1616C120.291 44.4675 119.645 44.6807 118.979 44.7939C118.269 44.91 117.552 44.9727 116.832 44.9814C116.496 44.9893 116.144 44.9938 115.802 44.9938L114.557 44.9961L10.1977 44.9938Z" fill="black"/>
<path d="M47.7747 19.0378H43.1221L42.0047 22.3418H40.0341L44.441 10.1181H46.4885L50.8954 22.3417H48.8911L47.7747 19.0378ZM43.6039 17.5132H47.2919L45.4739 12.1512H45.423L43.6039 17.5132Z" fill="white"/>
<path d="M60.4128 17.8862C60.4128 20.6556 58.9326 22.435 56.6989 22.435C56.1331 22.4646 55.5704 22.3341 55.0752 22.0583C54.58 21.7826 54.1723 21.3728 53.8989 20.8758H53.8567V25.29H52.03V13.4297H53.7981V14.912H53.8317C54.1177 14.4174 54.5322 14.0097 55.0312 13.7323C55.5302 13.4549 56.0949 13.3181 56.6653 13.3365C58.924 13.3365 60.4128 15.1244 60.4128 17.8862ZM58.5352 17.8862C58.5352 16.0818 57.6041 14.8957 56.1835 14.8957C54.7878 14.8957 53.849 16.1069 53.849 17.8862C53.849 19.6819 54.7878 20.8844 56.1835 20.8844C57.6041 20.8844 58.5352 19.7069 58.5352 17.8862H58.5352Z" fill="white"/>
<path d="M70.2081 17.8862C70.2081 20.6556 68.7274 22.435 66.4937 22.435C65.9279 22.4646 65.3652 22.3341 64.87 22.0583C64.3748 21.7826 63.9671 21.3728 63.6937 20.8758H63.6515V25.29H61.8248V13.4297H63.5929V14.912H63.6265C63.9125 14.4174 64.3271 14.0097 64.826 13.7323C65.325 13.4549 65.8897 13.3181 66.4602 13.3365C68.7188 13.3365 70.2081 15.1244 70.2081 17.8862ZM68.33 17.8862C68.33 16.0818 67.3989 14.8957 65.9783 14.8957C64.5826 14.8957 63.6438 16.1069 63.6438 17.8862C63.6438 19.6819 64.5826 20.8844 65.9783 20.8844C67.3989 20.8844 68.33 19.7069 68.33 17.8862H68.33Z" fill="white"/>
<path d="M76.6807 18.9359C76.816 20.1481 77.9919 20.944 79.5988 20.944C81.1385 20.944 82.2462 20.1481 82.2462 19.0551C82.2462 18.1063 81.5781 17.5382 79.9962 17.1489L78.4143 16.7672C76.1729 16.2251 75.1324 15.1754 75.1324 13.472C75.1324 11.3629 76.9677 9.91431 79.5729 9.91431C82.1531 9.91431 83.9212 11.363 83.9807 13.472H82.1367C82.0264 12.2521 81.0194 11.5158 79.5479 11.5158C78.0764 11.5158 77.0694 12.2608 77.0694 13.3452C77.0694 14.2094 77.7125 14.7179 79.2859 15.1072L80.6307 15.4379C83.1351 16.031 84.1746 17.0384 84.1746 18.8264C84.1746 21.1132 82.3566 22.5455 79.4634 22.5455C76.7565 22.5455 74.9289 21.1469 74.8108 18.9359L76.6807 18.9359Z" fill="white"/>
<path d="M88.1189 11.3207V13.4298H89.8112V14.8784H88.1189V19.7915C88.1189 20.5548 88.4577 20.9105 89.2016 20.9105C89.4025 20.907 89.6031 20.8928 89.8025 20.8682V22.3081C89.4681 22.3707 89.1281 22.3991 88.7879 22.3927C86.9862 22.3927 86.2835 21.715 86.2835 19.9867V14.8784H84.9896V13.4297H86.2835V11.3206L88.1189 11.3207Z" fill="white"/>
<path d="M90.7903 17.8862C90.7903 15.0821 92.4394 13.3201 95.011 13.3201C97.5912 13.3201 99.2326 15.0821 99.2326 17.8862C99.2326 20.6979 97.5998 22.4523 95.011 22.4523C92.4231 22.4523 90.7903 20.6979 90.7903 17.8862ZM97.3714 17.8862C97.3714 15.9627 96.4911 14.8274 95.011 14.8274C93.5308 14.8274 92.6506 15.9713 92.6506 17.8862C92.6506 19.8174 93.5308 20.944 95.011 20.944C96.4911 20.944 97.3714 19.8174 97.3714 17.8862Z" fill="white"/>
<path d="M100.739 13.4297H102.481V14.9465H102.523C102.641 14.4728 102.918 14.0541 103.308 13.7609C103.698 13.4677 104.176 13.3178 104.664 13.3364C104.874 13.3357 105.084 13.3586 105.289 13.4047V15.1157C105.024 15.0344 104.747 14.9971 104.469 15.0052C104.203 14.9944 103.939 15.0413 103.693 15.1425C103.448 15.2438 103.227 15.3971 103.046 15.5919C102.865 15.7867 102.729 16.0184 102.646 16.2711C102.563 16.5237 102.535 16.7914 102.565 17.0556V22.3417H100.739V13.4297Z" fill="white"/>
<path d="M113.712 19.7242C113.511 20.5663 113.012 21.307 112.307 21.8087C111.603 22.3104 110.74 22.5391 109.88 22.4523C107.291 22.4523 105.684 20.7152 105.684 17.9285C105.684 15.1331 107.3 13.3201 109.803 13.3201C112.265 13.3201 113.813 15.0139 113.813 17.716V18.3428H107.528V18.4533C107.499 18.7813 107.54 19.1117 107.648 19.4226C107.757 19.7335 107.93 20.0178 108.156 20.2566C108.383 20.4953 108.657 20.6831 108.962 20.8074C109.266 20.9317 109.593 20.9898 109.922 20.9777C110.354 21.0182 110.787 20.9181 111.157 20.6922C111.527 20.4664 111.815 20.1268 111.977 19.7242L113.712 19.7242ZM107.537 17.0643H111.986C112.002 16.7694 111.958 16.4743 111.855 16.1975C111.752 15.9207 111.593 15.6681 111.388 15.4557C111.183 15.2434 110.936 15.0757 110.664 14.9633C110.391 14.8508 110.098 14.7961 109.803 14.8024C109.506 14.8006 109.211 14.8579 108.935 14.9708C108.66 15.0838 108.41 15.2502 108.199 15.4605C107.989 15.6708 107.822 15.9208 107.708 16.196C107.594 16.4713 107.536 16.7664 107.537 17.0643Z" fill="white"/>
<path d="M42.342 35.4332L42.4177 34.491C42.7705 34.605 43.1387 34.6637 43.5094 34.6651C43.8447 34.6651 43.9743 34.6325 44.1369 34.4045C44.5322 33.5758 44.7035 32.6576 44.6337 31.7418C44.6337 30.767 44.3314 30.4851 43.5638 30.4851C43.3906 30.4851 43.196 30.4963 42.9795 30.5076C42.5664 32.189 41.8799 33.7908 40.9475 35.249L40.0498 34.7616C40.9256 33.5013 41.5665 32.0928 41.9417 30.6041C41.3493 30.6683 40.7611 30.7661 40.1799 30.8972L39.9853 29.9437C40.6447 29.8247 41.4336 29.7169 42.1688 29.6517C42.3199 28.9329 42.4318 28.2063 42.5041 27.4753L43.5638 27.5943C43.4662 28.2547 43.3474 28.9162 43.196 29.5653H43.6177C44.9909 29.5653 45.6502 30.247 45.6502 31.6979C45.7098 32.8051 45.4944 33.9098 45.0234 34.9132C44.8993 35.1439 44.7099 35.3327 44.4791 35.4559C44.2483 35.5792 43.9862 35.6315 43.7259 35.6062C43.2594 35.603 42.7949 35.545 42.342 35.4332ZM45.8229 29.5979L46.6124 29.0667C47.7071 30.1241 48.3666 31.5536 48.4611 33.0737L47.4232 33.2355C47.4156 32.5523 47.2699 31.8778 46.9948 31.2527C46.7198 30.6275 46.3212 30.0646 45.8229 29.5979Z" fill="white"/>
<path d="M52.0458 35.5849L51.8299 34.6101C52.1002 34.6325 52.4568 34.6426 52.6732 34.6426C54.8135 34.6426 55.6243 34.0373 55.6243 33.1377C55.6243 32.4235 55.1595 32.0124 54.1216 32.0124C52.99 32.1163 51.9359 32.6327 51.1593 33.4634L50.3266 33.0951C50.1689 31.6768 50.4927 30.2467 51.2457 29.0352L52.2079 29.3485C51.6084 30.1593 51.3171 31.1575 51.3864 32.164C52.2535 31.5517 53.2781 31.202 54.3381 31.1566C55.787 31.1566 56.6842 31.9034 56.6842 33.1163C56.6842 34.6538 55.473 35.596 52.5651 35.596C52.4243 35.5961 52.2191 35.5849 52.0458 35.5849ZM51.0404 28.3962L51.3107 27.4427C52.749 27.6631 54.1692 27.9889 55.5598 28.4176L55.3002 29.3598C53.9121 28.9111 52.4864 28.5886 51.0404 28.3962V28.3962Z" fill="white"/>
<path d="M59.8151 34.838C60.93 34.4705 61.9315 33.8215 62.723 32.9536C62.096 32.4331 61.4189 31.9764 60.7016 31.5902L61.296 30.8434C62.0192 31.2117 62.7068 31.6463 63.3499 32.1416C63.8664 31.3872 64.2268 30.5368 64.4097 29.6406H61.6526C61.0191 30.6683 60.2232 31.5862 59.2959 32.3584L58.5064 31.6767C59.841 30.5742 60.8751 29.1512 61.5124 27.5405L62.5503 27.7898C62.4314 28.093 62.3126 28.4064 62.1718 28.6995H64.8532L65.6209 29.0566C65.4346 30.5261 64.855 31.9178 63.9433 33.0843C63.0316 34.2508 61.8218 35.1486 60.4421 35.6826L59.8151 34.838ZM64.3771 27.2811L64.9827 26.988C65.2901 27.4001 65.5477 27.8472 65.7503 28.3199L65.069 28.6343C64.8976 28.1553 64.665 27.7004 64.3771 27.2811ZM65.7285 27.1721L66.3447 26.8801C66.6562 27.3051 66.9209 27.7626 67.1342 28.2446L66.4529 28.5366C66.2718 28.0522 66.0282 27.5934 65.7285 27.1721H65.7285Z" fill="white"/>
<path d="M70.4593 35.6388L69.9081 34.7617C71.0222 34.5836 72.0299 33.9955 72.7338 33.1125C73.4377 32.2294 73.7872 31.1151 73.7137 29.9876H69.173V32.1641H68.0807V29.0667H70.7946V27.4753H71.8863V29.0667H73.9082L74.903 29.3486C74.7729 32.4235 73.7462 34.7729 70.4593 35.6388Z" fill="white"/>
<path d="M77.0062 29.1431L77.6118 28.2547C78.5576 28.6877 79.4499 29.2293 80.2707 29.8686L79.5788 30.7996C78.7911 30.1456 77.9273 29.5894 77.0062 29.1431ZM77.2114 34.4809C78.5343 34.2816 79.7905 33.7688 80.8755 32.9854C81.9606 32.2019 82.8432 31.1703 83.45 29.9764L84.1632 30.7782C83.5044 32.011 82.5724 33.0764 81.4387 33.8927C80.3051 34.7089 78.9998 35.2543 77.623 35.4872L77.2114 34.4809Z" fill="white"/>
<path d="M93.0237 35.0009H86.2233V28.558H93.0237L93.0237 35.0009ZM87.2943 29.5541V34.0047H91.9427V29.5541H87.2943Z" fill="white"/>
<path d="M102.76 32.109H95.1163V31.005H102.76V32.109Z" fill="white"/>
<path d="M105.361 27.5079H106.431V30.2796C107.853 30.8727 109.233 31.5639 110.561 32.3483L109.955 33.3006C108.83 32.5796 107.652 31.9463 106.431 31.406V35.5848H105.361V27.5079ZM107.901 28.093L108.539 27.7898C108.851 28.2489 109.109 28.743 109.307 29.2621L108.604 29.5766C108.435 29.0536 108.198 28.5549 107.901 28.093H107.901ZM109.133 27.627L109.783 27.3237C110.111 27.7802 110.383 28.2745 110.593 28.796L109.89 29.1105C109.697 28.5877 109.443 28.0897 109.133 27.627H109.133Z" fill="white"/>
<path d="M28.9434 23.3458C28.9558 22.3859 29.2103 21.4448 29.6835 20.6099C30.1566 19.7751 30.833 19.0737 31.6496 18.5709C31.1308 17.829 30.4465 17.2184 29.6508 16.7877C28.8552 16.3569 27.9703 16.1179 27.0663 16.0896C25.1379 15.8869 23.2685 17.2451 22.2858 17.2451C21.2842 17.2451 19.7712 16.1097 18.142 16.1433C17.0882 16.1774 16.0612 16.4842 15.161 17.034C14.2608 17.5838 13.5182 18.3577 13.0055 19.2803C10.7846 23.131 12.4412 28.7902 14.5686 31.9028C15.6331 33.427 16.877 35.1295 18.5048 35.0691C20.0976 35.0029 20.6925 34.052 22.6152 34.052C24.52 34.052 25.0782 35.0691 26.7389 35.0307C28.4481 35.0029 29.525 33.4998 30.552 31.9612C31.3168 30.8752 31.9053 29.6749 32.2957 28.4048C31.3027 27.9842 30.4553 27.2802 29.8592 26.3806C29.2631 25.481 28.9446 24.4255 28.9434 23.3458Z" fill="white"/>
<path d="M25.8065 14.0425C26.7385 12.9222 27.1976 11.4822 27.0864 10.0283C25.6626 10.1781 24.3475 10.8595 23.403 11.9369C22.9412 12.4632 22.5875 13.0755 22.3621 13.7388C22.1368 14.402 22.0441 15.1033 22.0896 15.8025C22.8017 15.8098 23.5062 15.6552 24.1501 15.3504C24.7939 15.0455 25.3603 14.5983 25.8065 14.0425Z" fill="white"/>
</svg>
