<svg width="110" height="16" viewBox="0 0 110 16" fill="none" xmlns="http://www.w3.org/2000/svg">
<path d="M26.6061 13.814V8.98293H31.5987V6.95015H26.6061V3.65858H32.075V1.54074H24.0375V13.814H26.6061Z" fill="white"/>
<path d="M35.4575 13.9586C36.5972 13.9586 37.7284 13.3887 38.2388 12.4191H38.2898V13.814H40.6883V7.54552C40.6883 5.70837 39.1658 4.50061 36.8269 4.50061C34.4113 4.50061 32.9059 5.71687 32.8123 7.48598H35.0833C35.2023 6.81406 35.7892 6.35477 36.7163 6.35477C37.6519 6.35477 38.2473 6.84808 38.2473 7.69862V8.3025L35.9508 8.43858C33.6799 8.57467 32.4041 9.53578 32.4041 11.1943C32.4041 12.8359 33.7224 13.9586 35.4575 13.9586ZM36.274 12.1639C35.432 12.1639 34.8706 11.7387 34.8706 11.0582C34.8706 10.4118 35.398 9.99506 36.3251 9.92702L38.2473 9.80795V10.4714C38.2473 11.458 37.3542 12.1639 36.274 12.1639Z" fill="white"/>
<path d="M41.9019 7.37541C41.9019 8.74478 42.795 9.62933 44.5556 10.0036L46.1121 10.3268C47.0051 10.5309 47.3198 10.8031 47.3198 11.2879C47.3198 11.8833 46.7415 12.266 45.8059 12.266C44.8192 12.266 44.2494 11.8407 44.0963 11.0412H41.6723C41.8339 12.8359 43.2883 14.0096 45.8059 14.0096C48.1533 14.0096 49.7949 12.8273 49.7949 11.0327C49.7949 9.69738 49.0124 8.9489 47.1072 8.54915L45.5507 8.21744C44.6321 8.02182 44.2919 7.70712 44.2919 7.23933C44.2919 6.63545 44.8618 6.2442 45.7208 6.2442C46.6394 6.2442 47.1922 6.74602 47.2688 7.48598H49.5567C49.5057 5.69986 48.0598 4.50061 45.7208 4.50061C43.3988 4.50061 41.9019 5.64032 41.9019 7.37541Z" fill="white"/>
<path d="M51.4422 2.59541V4.69623H50.1579V6.56741H51.4422V11.3559C51.4422 13.1335 52.2758 13.848 54.4191 13.848C54.9209 13.848 55.3462 13.8055 55.6014 13.7459V11.9173C55.4483 11.9428 55.2186 11.9598 54.9975 11.9598C54.266 11.9598 53.9258 11.6281 53.9258 10.9307V6.56741H55.6099V4.69623H53.9258V2.59541H51.4422Z" fill="white"/>
<path d="M62.613 13.814V5.77641H62.6895L68.4306 13.814H70.557V1.54074H68.0989V9.53578H68.0309L62.2983 1.54074H60.1549V13.814H62.613Z" fill="white"/>
<path d="M76.3379 14.0096C79.0937 14.0096 80.8543 12.249 80.8543 9.24659C80.8543 6.28673 79.0682 4.50061 76.3379 4.50061C73.6077 4.50061 71.8216 6.29524 71.8216 9.24659C71.8216 12.2405 73.5822 14.0096 76.3379 14.0096ZM76.3379 12.1129C75.1132 12.1129 74.3392 11.0837 74.3392 9.2551C74.3392 7.44346 75.1302 6.3973 76.3379 6.3973C77.5457 6.3973 78.3282 7.44346 78.3282 9.2551C78.3282 11.0837 77.5542 12.1129 76.3379 12.1129Z" fill="white"/>
<path d="M82.5612 2.59541V4.69623H81.2769V6.56741H82.5612V11.3559C82.5612 13.1335 83.3947 13.848 85.5381 13.848C86.0399 13.848 86.4652 13.8055 86.7203 13.7459V11.9173C86.5672 11.9428 86.3376 11.9598 86.1164 11.9598C85.385 11.9598 85.0448 11.6281 85.0448 10.9307V6.56741H86.7288V4.69623H85.0448V2.59541H82.5612Z" fill="white"/>
<path d="M89.1247 3.46295C89.8476 3.46295 90.4175 2.88459 90.4175 2.18715C90.4175 1.48121 89.8476 0.911346 89.1247 0.911346C88.4017 0.911346 87.8319 1.48121 87.8319 2.18715C87.8319 2.88459 88.4017 3.46295 89.1247 3.46295ZM87.8914 13.814H90.375V4.69623H87.8914V13.814Z" fill="white"/>
<path d="M95.9773 14.0096C98.7331 14.0096 100.494 12.249 100.494 9.24659C100.494 6.28673 98.7075 4.50061 95.9773 4.50061C93.2471 4.50061 91.461 6.29524 91.461 9.24659C91.461 12.2405 93.2216 14.0096 95.9773 14.0096ZM95.9773 12.1129C94.7526 12.1129 93.9786 11.0837 93.9786 9.2551C93.9786 7.44346 94.7696 6.3973 95.9773 6.3973C97.1851 6.3973 97.9676 7.44346 97.9676 9.2551C97.9676 11.0837 97.1936 12.1129 95.9773 12.1129Z" fill="white"/>
<path d="M101.537 13.814H104.021V8.58318C104.021 7.40093 104.727 6.58442 105.841 6.58442C106.955 6.58442 107.516 7.26485 107.516 8.4556V13.814H110V7.93677C110 5.80192 108.86 4.52612 106.836 4.52612C105.433 4.52612 104.472 5.18954 103.987 6.32075H103.936V4.69623H101.537V13.814Z" fill="white"/>
<path fill-rule="evenodd" clip-rule="evenodd" d="M2.22265 15.0964L1.72036 15.0964C0.770242 15.0964 0.23922 14.3566 0.534293 13.4441C0.829367 12.5315 1.8388 11.7917 2.78892 11.7917L3.2912 11.7917C4.24132 11.7917 4.77234 12.5315 4.47727 13.4441C4.1822 14.3566 3.17277 15.0964 2.22265 15.0964ZM2.31117 14.8226C3.10386 14.8226 3.94603 14.2054 4.19221 13.4441C4.43839 12.6827 3.99536 12.0655 3.20267 12.0655L2.70039 12.0655C1.9077 12.0655 1.06553 12.6827 0.819352 13.4441C0.573171 14.2054 1.0162 14.8226 1.80889 14.8226L2.31117 14.8226Z" fill="white"/>
<path fill-rule="evenodd" clip-rule="evenodd" d="M7.50219 9.20041L3.62705 9.20041C2.67693 9.20041 2.1459 8.46063 2.44098 7.54807C2.73605 6.63551 3.74548 5.89574 4.6956 5.89574L8.57074 5.89574C9.52086 5.89574 10.0519 6.63551 9.75681 7.54807C9.46174 8.46063 8.45231 9.20041 7.50219 9.20041ZM7.59072 8.92662C8.3834 8.92662 9.22557 8.30942 9.47175 7.54807C9.71793 6.78672 9.2749 6.16953 8.48221 6.16952L4.60707 6.16952C3.81438 6.16952 2.97222 6.78672 2.72604 7.54807C2.47986 8.30942 2.92289 8.92662 3.71557 8.92662L7.59072 8.92662Z" fill="white"/>
<path d="M4.19233 13.4439C3.94615 14.2053 3.10398 14.8224 2.31129 14.8224L1.80901 14.8224C1.01632 14.8224 0.573293 14.2053 0.819473 13.4439C1.06565 12.6826 1.90782 12.0654 2.70051 12.0654L3.20279 12.0654C3.99548 12.0654 4.43851 12.6826 4.19233 13.4439Z" fill="white"/>
<path d="M9.47151 7.5483C9.22533 8.30965 8.38316 8.92685 7.59047 8.92685L3.71533 8.92685C2.92264 8.92685 2.47961 8.30965 2.72579 7.5483C2.97197 6.78695 3.81414 6.16976 4.60683 6.16976L8.48197 6.16976C9.27465 6.16976 9.71769 6.78695 9.47151 7.5483Z" fill="white"/>
<path d="M18.1238 1.65228C17.8777 2.41363 17.0355 3.03082 16.2428 3.03082L5.62196 3.03082C4.82927 3.03082 4.38624 2.41363 4.63242 1.65228C4.8786 0.890925 5.72077 0.273729 6.51345 0.273729L17.1343 0.27373C17.927 0.27373 18.37 0.890926 18.1238 1.65228Z" fill="white"/>
<path fill-rule="evenodd" clip-rule="evenodd" d="M16.1542 3.30469L5.5333 3.30469C4.58317 3.30469 4.05215 2.56491 4.34723 1.65235C4.6423 0.73979 5.65173 1.3813e-05 6.60185 1.38961e-05L17.2227 1.48246e-05C18.1728 1.49077e-05 18.7039 0.739791 18.4088 1.65235C18.1137 2.56491 17.1043 3.30469 16.1542 3.30469ZM16.2427 3.0309C17.0354 3.0309 17.8776 2.4137 18.1237 1.65235C18.3699 0.891 17.9269 0.273804 17.1342 0.273804L6.51332 0.273803C5.72063 0.273803 4.87846 0.890999 4.63228 1.65235C4.3861 2.4137 4.82914 3.0309 5.62183 3.0309L16.2427 3.0309Z" fill="white"/>
</svg>
