<svg width="150" height="21" viewBox="0 0 150 21" fill="none" xmlns="http://www.w3.org/2000/svg">
<path d="M36.2811 18.8369V12.2491H43.0893V9.47716H36.2811V4.98865H43.7388V2.1007H32.7784V18.8369H36.2811Z" fill="#3F3F3F"/>
<path d="M48.3512 19.0341C49.9054 19.0341 51.4479 18.257 52.1438 16.9348H52.2134V18.8369H55.4841V10.289C55.4841 7.78382 53.408 6.13688 50.2185 6.13688C46.9246 6.13688 44.8717 7.79542 44.7442 10.2078H47.8409C48.0033 9.29159 48.8035 8.66529 50.0677 8.66529C51.3436 8.66529 52.1554 9.33798 52.1554 10.4978V11.3213L49.0239 11.5068C45.9272 11.6924 44.1875 13.003 44.1875 15.2647C44.1875 17.5031 45.9852 19.0341 48.3512 19.0341ZM49.4646 16.5869C48.3164 16.5869 47.5509 16.007 47.5509 15.0791C47.5509 14.1976 48.27 13.6293 49.5342 13.5365L52.1554 13.3742V14.2788C52.1554 15.6242 50.9376 16.5869 49.4646 16.5869Z" fill="#3F3F3F"/>
<path d="M57.139 10.0571C57.139 11.9244 58.3568 13.1306 60.7577 13.6409L62.8801 14.0817C64.098 14.36 64.5271 14.7312 64.5271 15.3922C64.5271 16.2041 63.7384 16.726 62.4626 16.726C61.1172 16.726 60.3401 16.1461 60.1314 15.0559H56.8259C57.0462 17.5031 59.0295 19.1037 62.4626 19.1037C65.6637 19.1037 67.9022 17.4915 67.9022 15.0443C67.9022 13.2234 66.8351 12.2027 64.2371 11.6576L62.1147 11.2053C60.8621 10.9385 60.3981 10.5094 60.3981 9.8715C60.3981 9.04803 61.1752 8.51451 62.3466 8.51451C63.5992 8.51451 64.3531 9.1988 64.4575 10.2078H67.5774C67.5078 7.77222 65.5361 6.13688 62.3466 6.13688C59.1803 6.13688 57.139 7.69104 57.139 10.0571Z" fill="#3F3F3F"/>
<path d="M70.1486 3.53888V6.40363H68.3973V8.95524H70.1486V15.485C70.1486 17.9091 71.2852 18.8833 74.208 18.8833C74.8923 18.8833 75.4722 18.8253 75.8201 18.7441V16.2505C75.6114 16.2853 75.2982 16.3085 74.9966 16.3085C73.9992 16.3085 73.5353 15.8562 73.5353 14.9051V8.95524H75.8317V6.40363H73.5353V3.53888H70.1486Z" fill="#3F3F3F"/>
<path d="M85.3814 18.8369V7.87661H85.4858L93.3146 18.8369H96.2141V2.1007H92.8622V13.003H92.7694L84.9522 2.1007H82.0295V18.8369H85.3814Z" fill="#3F3F3F"/>
<path d="M104.097 19.1037C107.855 19.1037 110.256 16.7028 110.256 12.6087C110.256 8.5725 107.82 6.13688 104.097 6.13688C100.374 6.13688 97.9386 8.5841 97.9386 12.6087C97.9386 16.6912 100.339 19.1037 104.097 19.1037ZM104.097 16.5173C102.427 16.5173 101.372 15.1139 101.372 12.6203C101.372 10.1499 102.45 8.72328 104.097 8.72328C105.744 8.72328 106.811 10.1499 106.811 12.6203C106.811 15.1139 105.756 16.5173 104.097 16.5173Z" fill="#3F3F3F"/>
<path d="M112.584 3.53888V6.40363H110.832V8.95524H112.584V15.485C112.584 17.9091 113.72 18.8833 116.643 18.8833C117.327 18.8833 117.907 18.8253 118.255 18.7441V16.2505C118.046 16.2853 117.733 16.3085 117.432 16.3085C116.434 16.3085 115.97 15.8562 115.97 14.9051V8.95524H118.267V6.40363H115.97V3.53888H112.584Z" fill="#3F3F3F"/>
<path d="M121.534 4.72189C122.52 4.72189 123.297 3.93322 123.297 2.98216C123.297 2.01951 122.52 1.24243 121.534 1.24243C120.548 1.24243 119.771 2.01951 119.771 2.98216C119.771 3.93322 120.548 4.72189 121.534 4.72189ZM119.852 18.8369H123.239V6.40363H119.852V18.8369Z" fill="#3F3F3F"/>
<path d="M130.878 19.1037C134.636 19.1037 137.037 16.7028 137.037 12.6087C137.037 8.5725 134.601 6.13688 130.878 6.13688C127.155 6.13688 124.72 8.5841 124.72 12.6087C124.72 16.6912 127.12 19.1037 130.878 19.1037ZM130.878 16.5173C129.208 16.5173 128.153 15.1139 128.153 12.6203C128.153 10.1499 129.231 8.72328 130.878 8.72328C132.525 8.72328 133.592 10.1499 133.592 12.6203C133.592 15.1139 132.537 16.5173 130.878 16.5173Z" fill="#3F3F3F"/>
<path d="M138.46 18.8369H141.847V11.704C141.847 10.0919 142.809 8.97844 144.329 8.97844C145.848 8.97844 146.613 9.90629 146.613 11.53V18.8369H150V10.8226C150 7.9114 148.446 6.17167 145.686 6.17167C143.772 6.17167 142.461 7.07633 141.8 8.61889H141.731V6.40363H138.46V18.8369Z" fill="#3F3F3F"/>
<path d="M5.71673 18.3321C5.38103 19.3703 4.23261 20.2119 3.15168 20.2119L2.46675 20.2119C1.38581 20.2119 0.781673 19.3703 1.11737 18.3321C1.45307 17.2939 2.60149 16.4522 3.68242 16.4522L4.36735 16.4522C5.44829 16.4522 6.05243 17.2939 5.71673 18.3321Z" fill="#3F3F3F"/>
<path fill-rule="evenodd" clip-rule="evenodd" d="M3.0309 20.5857L2.34597 20.5857C1.05035 20.5857 0.326232 19.5769 0.728604 18.3325C1.13098 17.0881 2.50747 16.0793 3.80309 16.0793L4.48802 16.0793C5.78364 16.0793 6.50776 17.0881 6.10539 18.3325C5.70302 19.5769 4.32652 20.5857 3.0309 20.5857ZM3.15162 20.2123C4.23256 20.2123 5.38098 19.3707 5.71668 18.3325C6.05238 17.2943 5.44824 16.4527 4.3673 16.4527L3.68237 16.4527C2.60143 16.4527 1.45302 17.2943 1.11732 18.3325C0.78162 19.3707 1.38576 20.2123 2.46669 20.2123L3.15162 20.2123Z" fill="#3F3F3F"/>
<path d="M12.9159 10.2925C12.5802 11.3307 11.4318 12.1724 10.3509 12.1724L5.06661 12.1724C3.98567 12.1724 3.38154 11.3307 3.71724 10.2925C4.05294 9.25432 5.20135 8.41269 6.28229 8.41269L11.5666 8.41269C12.6475 8.41269 13.2516 9.25432 12.9159 10.2925Z" fill="#3F3F3F"/>
<path fill-rule="evenodd" clip-rule="evenodd" d="M10.2302 12.5457L4.94596 12.5457C3.65034 12.5457 2.92622 11.5369 3.32859 10.2925C3.73097 9.04807 5.10746 8.03928 6.40308 8.03928L11.6874 8.03928C12.983 8.03928 13.7071 9.04807 13.3047 10.2925C12.9024 11.5369 11.5259 12.5457 10.2302 12.5457ZM10.351 12.1723C11.4319 12.1723 12.5803 11.3307 12.916 10.2925C13.2517 9.25426 12.6476 8.41263 11.5666 8.41263L6.28236 8.41263C5.20142 8.41263 4.05301 9.25426 3.71731 10.2925C3.38161 11.3307 3.98574 12.1723 5.06668 12.1723L10.351 12.1723Z" fill="#3F3F3F"/>
<path d="M24.7144 2.25298C24.3787 3.29118 23.2303 4.13281 22.1494 4.13281L7.66637 4.13281C6.58543 4.13281 5.9813 3.29118 6.317 2.25297C6.6527 1.21477 7.80111 0.373138 8.88205 0.373138L23.365 0.37314C24.446 0.37314 25.0501 1.21477 24.7144 2.25298Z" fill="#3F3F3F"/>
<path fill-rule="evenodd" clip-rule="evenodd" d="M22.0287 4.50635L7.5457 4.50635C6.25008 4.50635 5.52596 3.49756 5.92833 2.25316C6.33071 1.00876 7.7072 -2.58447e-05 9.00282 -2.57314e-05L23.4858 -2.44653e-05C24.7814 -2.4352e-05 25.5056 1.00876 25.1032 2.25316C24.7008 3.49756 23.3243 4.50635 22.0287 4.50635ZM22.1494 4.133C23.2304 4.133 24.3788 3.29137 24.7145 2.25316C25.0502 1.21496 24.446 0.373324 23.3651 0.373324L8.8821 0.373323C7.80116 0.373323 6.65275 1.21495 6.31705 2.25316C5.98135 3.29137 6.58548 4.133 7.66642 4.133L22.1494 4.133Z" fill="#3F3F3F"/>
</svg>
